<svg width="41" height="20" viewBox="0 0 41 20" fill="none" xmlns="http://www.w3.org/2000/svg">
<path id="Vector" d="M31.775 0.50004C29.315 0.50004 26.9917 1.48889 25.3346 3.20171L13.325 14.2203C12.2317 15.3504 10.7796 15.9684 9.225 15.9684C6.03042 15.9684 3.41667 13.3021 3.41667 10C3.41667 6.69798 6.03042 4.03163 9.225 4.03163C10.7796 4.03163 12.2317 4.64966 13.3933 5.8504L15.3238 7.6162L17.9375 5.25003L15.7508 3.29C14.8953 2.40238 13.8782 1.69881 12.7581 1.21994C11.6379 0.741065 10.4371 0.496386 9.225 0.50004C4.13417 0.50004 0 4.77327 0 10C0 15.2268 4.13417 19.5 9.225 19.5C11.685 19.5 14.0083 18.5112 15.6654 16.7983L27.675 5.77977C28.7683 4.64966 30.2204 4.03163 31.775 4.03163C34.9696 4.03163 37.5833 6.69798 37.5833 10C37.5833 13.3021 34.9696 15.9684 31.775 15.9684C30.2375 15.9684 28.7683 15.3504 27.6067 14.1496L25.625 12.3662L23.0625 14.7324L25.2492 16.71C26.107 17.5932 27.125 18.2927 28.2448 18.7684C29.3646 19.2442 30.5643 19.4868 31.775 19.4823C36.8658 19.4823 41 15.2268 41 10C41 4.70263 36.8658 0.50004 31.775 0.50004Z" fill="#01B969"/>
</svg>
