<svg width="547" height="331" viewBox="0 0 547 331" fill="none" xmlns="http://www.w3.org/2000/svg">
<circle cx="289.468" cy="156.451" r="153.821" fill="#212B36"/>
<circle cx="289.468" cy="156.451" r="129.694" fill="#FEFFC8"/>
<path d="M419.162 156.451C419.162 133.285 412.958 110.542 401.193 90.5857C389.428 70.6294 372.532 54.1886 352.262 42.9723C331.993 31.7559 309.089 26.1734 285.931 26.8052C262.774 27.4369 240.208 34.2598 220.58 46.5646C200.952 58.8694 184.978 76.2069 174.319 96.7749C163.659 117.343 158.704 140.391 159.967 163.522C161.23 186.654 168.665 209.025 181.501 228.31C194.336 247.595 212.103 263.091 232.954 273.185L289.468 156.451H419.162Z" fill="white"/>
<path d="M289.468 26.757C260.07 26.757 231.545 36.7444 208.568 55.0821C185.59 73.4198 169.525 99.0197 163.004 127.685C156.484 156.351 159.896 186.381 172.68 212.853C185.465 239.326 206.864 260.669 233.369 273.385L289.468 156.451V26.757Z" fill="#DAFFD1"/>
<path d="M315.435 125.808L344.182 101.99" stroke="#1C1C1C" stroke-width="1.5"/>
<g filter="url(#filter0_d_773_17588)">
<rect x="10.9487" y="48.5071" width="225.5" height="95.75" rx="12" fill="#1C1C1C" shape-rendering="crispEdges"/>
<circle cx="30.4487" cy="73.0071" r="4.5" fill="#01B969"/>
<path d="M43.8727 78.5071V67.1471H48.6727C49.1634 67.1471 49.6114 67.2484 50.0167 67.4511C50.4221 67.6537 50.7741 67.9311 51.0727 68.2831C51.3821 68.6244 51.6167 69.0084 51.7767 69.4351C51.9474 69.8511 52.0327 70.2777 52.0327 70.7151C52.0327 71.2591 51.9261 71.7711 51.7127 72.2511C51.5101 72.7311 51.2167 73.1364 50.8327 73.4671C50.4594 73.7977 50.0167 74.0164 49.5047 74.1231L52.2887 78.5071H51.0247L48.3527 74.3151H44.9927V78.5071H43.8727ZM44.9927 73.3231H48.7047C49.1527 73.3231 49.5421 73.2004 49.8727 72.9551C50.2034 72.7097 50.4594 72.3897 50.6407 71.9951C50.8221 71.5897 50.9127 71.1631 50.9127 70.7151C50.9127 70.2564 50.8061 69.8351 50.5927 69.4511C50.3901 69.0564 50.1127 68.7417 49.7607 68.5071C49.4194 68.2617 49.0354 68.1391 48.6087 68.1391H44.9927V73.3231ZM53.3049 76.1071C53.3049 75.5844 53.4542 75.1364 53.7529 74.7631C54.0515 74.3791 54.4622 74.0857 54.9849 73.8831C55.5182 73.6697 56.1315 73.5631 56.8249 73.5631C57.2302 73.5631 57.6515 73.5951 58.0889 73.6591C58.5262 73.7231 58.9155 73.8191 59.2569 73.9471V73.2431C59.2569 72.5391 59.0489 71.9791 58.6329 71.5631C58.2169 71.1471 57.6409 70.9391 56.9049 70.9391C56.4569 70.9391 56.0142 71.0244 55.5769 71.1951C55.1502 71.3551 54.7022 71.5951 54.2329 71.9151L53.8169 71.1471C54.3609 70.7737 54.8942 70.4964 55.4169 70.3151C55.9395 70.1231 56.4729 70.0271 57.0169 70.0271C58.0409 70.0271 58.8515 70.3204 59.4489 70.9071C60.0462 71.4937 60.3449 72.3044 60.3449 73.3391V77.1951C60.3449 77.3444 60.3769 77.4564 60.4409 77.5311C60.5049 77.5951 60.6062 77.6324 60.7449 77.6431V78.5071C60.6275 78.5177 60.5262 78.5284 60.4409 78.5391C60.3555 78.5497 60.2915 78.5497 60.2489 78.5391C59.9822 78.5284 59.7795 78.4431 59.6409 78.2831C59.5022 78.1231 59.4275 77.9524 59.4169 77.7711L59.4009 77.1631C59.0275 77.6431 58.5422 78.0164 57.9449 78.2831C57.3475 78.5391 56.7395 78.6671 56.1209 78.6671C55.5875 78.6671 55.1022 78.5551 54.6649 78.3311C54.2382 78.0964 53.9022 77.7871 53.6569 77.4031C53.4222 77.0084 53.3049 76.5764 53.3049 76.1071ZM58.8889 76.7471C59.0062 76.5977 59.0969 76.4537 59.1609 76.3151C59.2249 76.1764 59.2569 76.0537 59.2569 75.9471V74.7311C58.8942 74.5924 58.5155 74.4857 58.1209 74.4111C57.7369 74.3364 57.3475 74.2991 56.9529 74.2991C56.1742 74.2991 55.5449 74.4537 55.0649 74.7631C54.5849 75.0724 54.3449 75.4937 54.3449 76.0271C54.3449 76.3364 54.4249 76.6297 54.5849 76.9071C54.7449 77.1737 54.9795 77.3977 55.2889 77.5791C55.5982 77.7497 55.9609 77.8351 56.3769 77.8351C56.8995 77.8351 57.3849 77.7337 57.8329 77.5311C58.2915 77.3284 58.6435 77.0671 58.8889 76.7471ZM69.7036 78.5071H68.6156V73.8511C68.6156 72.8697 68.4716 72.1551 68.1836 71.7071C67.8956 71.2484 67.4423 71.0191 66.8236 71.0191C66.3969 71.0191 65.9756 71.1257 65.5596 71.3391C65.1436 71.5417 64.7756 71.8244 64.4556 72.1871C64.1463 72.5391 63.9223 72.9444 63.7836 73.4031V78.5071H62.6956V70.1711H63.6876V72.0591C63.9116 71.6537 64.2049 71.3017 64.5676 71.0031C64.9303 70.6937 65.3409 70.4537 65.7996 70.2831C66.2583 70.1124 66.7329 70.0271 67.2236 70.0271C67.6823 70.0271 68.0716 70.1124 68.3916 70.2831C68.7116 70.4537 68.9676 70.6991 69.1596 71.0191C69.3516 71.3284 69.4903 71.7071 69.5756 72.1551C69.6609 72.5924 69.7036 73.0831 69.7036 73.6271V78.5071ZM77.9757 78.5071L74.8877 74.2351L73.1117 75.8991V78.5071H72.0237V66.8271H73.1117V74.7311L77.8317 70.1871H79.0317L75.6237 73.5951L79.1597 78.5071H77.9757ZM83.6706 78.6671C83.0733 78.6671 82.5186 78.5551 82.0066 78.3311C81.4946 78.0964 81.0519 77.7817 80.6786 77.3871C80.3053 76.9817 80.0119 76.5177 79.7986 75.9951C79.5959 75.4724 79.4946 74.9124 79.4946 74.3151C79.4946 73.5364 79.6706 72.8217 80.0226 72.1711C80.3853 71.5204 80.8813 71.0031 81.5106 70.6191C82.1399 70.2244 82.8546 70.0271 83.6546 70.0271C84.4759 70.0271 85.1906 70.2244 85.7986 70.6191C86.4173 71.0137 86.9026 71.5364 87.2546 72.1871C87.6066 72.8271 87.7826 73.5311 87.7826 74.2991C87.7826 74.3844 87.7826 74.4697 87.7826 74.5551C87.7826 74.6297 87.7773 74.6884 87.7666 74.7311H80.6306C80.6839 75.3284 80.8493 75.8617 81.1266 76.3311C81.4146 76.7897 81.7826 77.1577 82.2306 77.4351C82.6893 77.7017 83.1853 77.8351 83.7186 77.8351C84.2626 77.8351 84.7746 77.6964 85.2546 77.4191C85.7453 77.1417 86.0866 76.7791 86.2786 76.3311L87.2226 76.5871C87.0519 76.9817 86.7906 77.3391 86.4386 77.6591C86.0866 77.9791 85.6706 78.2297 85.1906 78.4111C84.7213 78.5817 84.2146 78.6671 83.6706 78.6671ZM80.5986 73.9471H86.7586C86.7159 73.3391 86.5506 72.8057 86.2626 72.3471C85.9853 71.8884 85.6173 71.5311 85.1586 71.2751C84.7106 71.0084 84.2146 70.8751 83.6706 70.8751C83.1266 70.8751 82.6306 71.0084 82.1826 71.2751C81.7346 71.5311 81.3666 71.8937 81.0786 72.3631C80.8013 72.8217 80.6413 73.3497 80.5986 73.9471ZM88.9012 74.3631C88.9012 73.5737 89.0612 72.8537 89.3812 72.2031C89.7119 71.5417 90.1652 71.0137 90.7412 70.6191C91.3172 70.2244 91.9732 70.0271 92.7092 70.0271C93.4026 70.0271 94.0212 70.2137 94.5652 70.5871C95.1199 70.9497 95.5519 71.3924 95.8612 71.9151V66.8271H96.9492V77.1951C96.9492 77.3444 96.9812 77.4564 97.0452 77.5311C97.1092 77.5951 97.2052 77.6324 97.3332 77.6431V78.5071C97.1199 78.5391 96.9546 78.5497 96.8372 78.5391C96.6132 78.5284 96.4159 78.4377 96.2452 78.2671C96.0746 78.0964 95.9892 77.9097 95.9892 77.7071V76.8911C95.6586 77.4351 95.2106 77.8671 94.6452 78.1871C94.0799 78.5071 93.4932 78.6671 92.8852 78.6671C92.3092 78.6671 91.7759 78.5497 91.2852 78.3151C90.8052 78.0804 90.3839 77.7604 90.0212 77.3551C89.6692 76.9497 89.3919 76.4911 89.1892 75.9791C88.9972 75.4564 88.9012 74.9177 88.9012 74.3631ZM95.8612 75.6431V73.0671C95.7226 72.6831 95.4986 72.3364 95.1892 72.0271C94.8799 71.7071 94.5279 71.4564 94.1332 71.2751C93.7492 71.0831 93.3652 70.9871 92.9812 70.9871C92.5332 70.9871 92.1279 71.0831 91.7652 71.2751C91.4026 71.4564 91.0879 71.7071 90.8212 72.0271C90.5652 72.3471 90.3679 72.7097 90.2292 73.1151C90.0906 73.5204 90.0212 73.9364 90.0212 74.3631C90.0212 74.8111 90.0959 75.2377 90.2452 75.6431C90.4052 76.0484 90.6292 76.4111 90.9172 76.7311C91.2052 77.0404 91.5359 77.2804 91.9092 77.4511C92.2826 77.6217 92.6879 77.7071 93.1252 77.7071C93.4026 77.7071 93.6906 77.6537 93.9892 77.5471C94.2879 77.4404 94.5706 77.2964 94.8372 77.1151C95.1146 76.9231 95.3439 76.6991 95.5252 76.4431C95.7066 76.1871 95.8186 75.9204 95.8612 75.6431ZM103.716 78.5071V67.1631H104.836V73.7551L111.092 67.1471H112.324L107.684 72.1391L112.564 78.5071H111.3L106.964 72.8111L104.836 75.0191V78.5071H103.716ZM116.874 78.6671C116.276 78.6671 115.722 78.5551 115.21 78.3311C114.698 78.0964 114.255 77.7817 113.882 77.3871C113.508 76.9817 113.215 76.5177 113.002 75.9951C112.799 75.4724 112.698 74.9124 112.698 74.3151C112.698 73.5364 112.874 72.8217 113.226 72.1711C113.588 71.5204 114.084 71.0031 114.714 70.6191C115.343 70.2244 116.058 70.0271 116.858 70.0271C117.679 70.0271 118.394 70.2244 119.002 70.6191C119.62 71.0137 120.106 71.5364 120.458 72.1871C120.81 72.8271 120.986 73.5311 120.986 74.2991C120.986 74.3844 120.986 74.4697 120.986 74.5551C120.986 74.6297 120.98 74.6884 120.97 74.7311H113.834C113.887 75.3284 114.052 75.8617 114.33 76.3311C114.618 76.7897 114.986 77.1577 115.434 77.4351C115.892 77.7017 116.388 77.8351 116.922 77.8351C117.466 77.8351 117.978 77.6964 118.458 77.4191C118.948 77.1417 119.29 76.7791 119.482 76.3311L120.426 76.5871C120.255 76.9817 119.994 77.3391 119.642 77.6591C119.29 77.9791 118.874 78.2297 118.394 78.4111C117.924 78.5817 117.418 78.6671 116.874 78.6671ZM113.802 73.9471H119.962C119.919 73.3391 119.754 72.8057 119.466 72.3471C119.188 71.8884 118.82 71.5311 118.362 71.2751C117.914 71.0084 117.418 70.8751 116.874 70.8751C116.33 70.8751 115.834 71.0084 115.386 71.2751C114.938 71.5311 114.57 71.8937 114.282 72.3631C114.004 72.8217 113.844 73.3497 113.802 73.9471ZM122.91 81.0671C123.059 81.0777 123.203 81.0831 123.342 81.0831C123.481 81.0937 123.582 81.0884 123.646 81.0671C123.774 81.0457 123.897 80.9711 124.014 80.8431C124.131 80.7151 124.27 80.4697 124.43 80.1071C124.59 79.7444 124.814 79.2111 125.102 78.5071L121.47 70.1711H122.622L125.678 77.3871L128.494 70.1711H129.582L125.262 80.9231C125.187 81.1257 125.075 81.3124 124.926 81.4831C124.777 81.6644 124.59 81.8031 124.366 81.8991C124.153 82.0057 123.886 82.0644 123.566 82.0751C123.47 82.0857 123.369 82.0857 123.262 82.0751C123.166 82.0751 123.049 82.0644 122.91 82.0431V81.0671ZM141.598 70.1711H142.67L139.086 78.5071H138.142L136.398 74.3631L134.67 78.5071H133.726L130.142 70.1711H131.198L134.238 77.3871L135.774 73.6271L134.366 70.1871H135.342L136.398 72.8911L137.47 70.1871H138.43L137.038 73.6271L138.574 77.3871L141.598 70.1711ZM147.388 78.6671C146.791 78.6671 146.236 78.5551 145.724 78.3311C145.223 78.0964 144.786 77.7817 144.412 77.3871C144.05 76.9817 143.767 76.5231 143.564 76.0111C143.362 75.4884 143.26 74.9391 143.26 74.3631C143.26 73.7657 143.362 73.2111 143.564 72.6991C143.767 72.1764 144.055 71.7177 144.428 71.3231C144.802 70.9177 145.239 70.6031 145.74 70.3791C146.252 70.1444 146.807 70.0271 147.404 70.0271C148.002 70.0271 148.551 70.1444 149.052 70.3791C149.554 70.6031 149.991 70.9177 150.364 71.3231C150.738 71.7177 151.026 72.1764 151.228 72.6991C151.431 73.2111 151.532 73.7657 151.532 74.3631C151.532 74.9391 151.431 75.4884 151.228 76.0111C151.026 76.5231 150.738 76.9817 150.364 77.3871C150.002 77.7817 149.564 78.0964 149.052 78.3311C148.551 78.5551 147.996 78.6671 147.388 78.6671ZM144.364 74.3791C144.364 74.9977 144.498 75.5631 144.764 76.0751C145.042 76.5764 145.41 76.9764 145.868 77.2751C146.327 77.5631 146.834 77.7071 147.388 77.7071C147.943 77.7071 148.45 77.5577 148.908 77.2591C149.367 76.9604 149.735 76.5551 150.012 76.0431C150.29 75.5204 150.428 74.9551 150.428 74.3471C150.428 73.7284 150.29 73.1631 150.012 72.6511C149.735 72.1391 149.367 71.7337 148.908 71.4351C148.45 71.1364 147.943 70.9871 147.388 70.9871C146.834 70.9871 146.327 71.1417 145.868 71.4511C145.42 71.7604 145.058 72.1711 144.78 72.6831C144.503 73.1844 144.364 73.7497 144.364 74.3791ZM157.512 71.1311C156.787 71.1524 156.147 71.3551 155.592 71.7391C155.048 72.1231 154.664 72.6511 154.44 73.3231V78.5071H153.352V70.1711H154.376V72.1711C154.664 71.5844 155.043 71.1097 155.512 70.7471C155.992 70.3844 156.499 70.1817 157.032 70.1391C157.139 70.1284 157.229 70.1231 157.304 70.1231C157.389 70.1231 157.459 70.1284 157.512 70.1391V71.1311ZM158.182 74.3631C158.182 73.5737 158.342 72.8537 158.662 72.2031C158.993 71.5417 159.446 71.0137 160.022 70.6191C160.598 70.2244 161.254 70.0271 161.99 70.0271C162.684 70.0271 163.302 70.2137 163.846 70.5871C164.401 70.9497 164.833 71.3924 165.142 71.9151V66.8271H166.23V77.1951C166.23 77.3444 166.262 77.4564 166.326 77.5311C166.39 77.5951 166.486 77.6324 166.614 77.6431V78.5071C166.401 78.5391 166.236 78.5497 166.118 78.5391C165.894 78.5284 165.697 78.4377 165.526 78.2671C165.356 78.0964 165.27 77.9097 165.27 77.7071V76.8911C164.94 77.4351 164.492 77.8671 163.926 78.1871C163.361 78.5071 162.774 78.6671 162.166 78.6671C161.59 78.6671 161.057 78.5497 160.566 78.3151C160.086 78.0804 159.665 77.7604 159.302 77.3551C158.95 76.9497 158.673 76.4911 158.47 75.9791C158.278 75.4564 158.182 74.9177 158.182 74.3631ZM165.142 75.6431V73.0671C165.004 72.6831 164.78 72.3364 164.47 72.0271C164.161 71.7071 163.809 71.4564 163.414 71.2751C163.03 71.0831 162.646 70.9871 162.262 70.9871C161.814 70.9871 161.409 71.0831 161.046 71.2751C160.684 71.4564 160.369 71.7071 160.102 72.0271C159.846 72.3471 159.649 72.7097 159.51 73.1151C159.372 73.5204 159.302 73.9364 159.302 74.3631C159.302 74.8111 159.377 75.2377 159.526 75.6431C159.686 76.0484 159.91 76.4111 160.198 76.7311C160.486 77.0404 160.817 77.2804 161.19 77.4511C161.564 77.6217 161.969 77.7071 162.406 77.7071C162.684 77.7071 162.972 77.6537 163.27 77.5471C163.569 77.4404 163.852 77.2964 164.118 77.1151C164.396 76.9231 164.625 76.6991 164.806 76.4431C164.988 76.1871 165.1 75.9204 165.142 75.6431ZM171.432 78.6671C170.749 78.6671 170.114 78.5551 169.528 78.3311C168.941 78.1071 168.434 77.7657 168.008 77.3071L168.456 76.5391C168.925 76.9764 169.394 77.2964 169.864 77.4991C170.344 77.6911 170.85 77.7871 171.384 77.7871C172.034 77.7871 172.562 77.6591 172.968 77.4031C173.373 77.1364 173.576 76.7577 173.576 76.2671C173.576 75.9364 173.474 75.6857 173.272 75.5151C173.08 75.3337 172.797 75.1897 172.424 75.0831C172.061 74.9657 171.624 74.8431 171.112 74.7151C170.536 74.5551 170.05 74.3897 169.656 74.2191C169.272 74.0377 168.978 73.8137 168.776 73.5471C168.584 73.2697 168.488 72.9124 168.488 72.4751C168.488 71.9311 168.621 71.4831 168.888 71.1311C169.165 70.7684 169.538 70.4964 170.008 70.3151C170.488 70.1231 171.021 70.0271 171.608 70.0271C172.248 70.0271 172.813 70.1284 173.304 70.3311C173.794 70.5337 174.194 70.8164 174.504 71.1791L173.976 71.9151C173.677 71.5737 173.32 71.3231 172.904 71.1631C172.498 70.9924 172.045 70.9071 171.544 70.9071C171.202 70.9071 170.877 70.9551 170.568 71.0511C170.258 71.1364 170.002 71.2857 169.8 71.4991C169.608 71.7017 169.512 71.9844 169.512 72.3471C169.512 72.6457 169.586 72.8804 169.736 73.0511C169.885 73.2111 170.109 73.3497 170.408 73.4671C170.706 73.5737 171.074 73.6911 171.512 73.8191C172.141 73.9897 172.69 74.1657 173.16 74.3471C173.629 74.5177 173.992 74.7417 174.248 75.0191C174.504 75.2964 174.632 75.6857 174.632 76.1871C174.632 76.9657 174.338 77.5737 173.752 78.0111C173.165 78.4484 172.392 78.6671 171.432 78.6671Z" fill="#BBBBBB"/>
<path d="M56.2847 117.377V120.257H43.3607V117.377H48.4727V103.337C48.2567 103.625 47.9207 103.937 47.4647 104.273C47.0087 104.585 46.4927 104.885 45.9167 105.173C45.3407 105.461 44.7647 105.701 44.1887 105.893C43.6127 106.061 43.0847 106.145 42.6047 106.145V103.121C43.1327 103.121 43.7087 102.977 44.3327 102.689C44.9807 102.377 45.6047 102.017 46.2047 101.609C46.8047 101.201 47.3087 100.817 47.7167 100.457C48.1487 100.097 48.4007 99.8451 48.4727 99.7011H51.7127V117.377H56.2847ZM77.3158 109.709C77.3158 111.821 76.9198 113.705 76.1278 115.361C75.3358 116.993 74.2558 118.277 72.8878 119.213C71.5198 120.149 69.9598 120.617 68.2078 120.617C66.4558 120.617 64.8958 120.149 63.5278 119.213C62.1598 118.277 61.0798 116.993 60.2878 115.361C59.4958 113.705 59.0998 111.821 59.0998 109.709C59.0998 107.597 59.4958 105.725 60.2878 104.093C61.0798 102.437 62.1598 101.141 63.5278 100.205C64.8958 99.2451 66.4558 98.7651 68.2078 98.7651C69.9598 98.7651 71.5198 99.2451 72.8878 100.205C74.2558 101.141 75.3358 102.437 76.1278 104.093C76.9198 105.725 77.3158 107.597 77.3158 109.709ZM74.1118 109.709C74.1118 108.125 73.8598 106.733 73.3558 105.533C72.8518 104.333 72.1558 103.397 71.2678 102.725C70.3798 102.053 69.3598 101.717 68.2078 101.717C67.0318 101.717 65.9998 102.053 65.1118 102.725C64.2238 103.397 63.5278 104.333 63.0238 105.533C62.5198 106.733 62.2678 108.125 62.2678 109.709C62.2678 111.293 62.5198 112.685 63.0238 113.885C63.5278 115.061 64.2238 115.985 65.1118 116.657C65.9998 117.329 67.0318 117.665 68.2078 117.665C69.3598 117.665 70.3798 117.329 71.2678 116.657C72.1558 115.985 72.8518 115.061 73.3558 113.885C73.8598 112.685 74.1118 111.293 74.1118 109.709ZM104.433 120.257V100.745L96.009 115.757H94.029L85.569 100.745V120.257H82.329V94.6971H85.749L95.001 111.293L104.289 94.6971H107.673V120.257H104.433Z" fill="white"/>
</g>
<g filter="url(#filter1_d_773_17588)">
<rect x="315.5" y="222.619" width="215.5" height="95.75" rx="12" fill="#1C1C1C" shape-rendering="crispEdges"/>
<circle cx="335" cy="247.119" r="4.5" fill="#01B969"/>
<path d="M348.424 252.619V241.259H355.88V242.251H349.544V246.427H354.888V247.355H349.544V252.619H348.424ZM360.643 252.779C360.045 252.779 359.491 252.667 358.979 252.443C358.477 252.208 358.04 251.894 357.667 251.499C357.304 251.094 357.021 250.635 356.819 250.123C356.616 249.6 356.515 249.051 356.515 248.475C356.515 247.878 356.616 247.323 356.819 246.811C357.021 246.288 357.309 245.83 357.683 245.435C358.056 245.03 358.493 244.715 358.995 244.491C359.507 244.256 360.061 244.139 360.659 244.139C361.256 244.139 361.805 244.256 362.307 244.491C362.808 244.715 363.245 245.03 363.619 245.435C363.992 245.83 364.28 246.288 364.483 246.811C364.685 247.323 364.787 247.878 364.787 248.475C364.787 249.051 364.685 249.6 364.483 250.123C364.28 250.635 363.992 251.094 363.619 251.499C363.256 251.894 362.819 252.208 362.307 252.443C361.805 252.667 361.251 252.779 360.643 252.779ZM357.619 248.491C357.619 249.11 357.752 249.675 358.019 250.187C358.296 250.688 358.664 251.088 359.123 251.387C359.581 251.675 360.088 251.819 360.643 251.819C361.197 251.819 361.704 251.67 362.163 251.371C362.621 251.072 362.989 250.667 363.267 250.155C363.544 249.632 363.683 249.067 363.683 248.459C363.683 247.84 363.544 247.275 363.267 246.763C362.989 246.251 362.621 245.846 362.163 245.547C361.704 245.248 361.197 245.099 360.643 245.099C360.088 245.099 359.581 245.254 359.123 245.563C358.675 245.872 358.312 246.283 358.035 246.795C357.757 247.296 357.619 247.862 357.619 248.491ZM370.766 245.243C370.041 245.264 369.401 245.467 368.846 245.851C368.302 246.235 367.918 246.763 367.694 247.435V252.619H366.606V244.283H367.63V246.283C367.918 245.696 368.297 245.222 368.766 244.859C369.246 244.496 369.753 244.294 370.286 244.251C370.393 244.24 370.484 244.235 370.558 244.235C370.644 244.235 370.713 244.24 370.766 244.251V245.243ZM376.216 252.219C376.13 252.251 375.997 252.31 375.816 252.395C375.634 252.48 375.416 252.555 375.16 252.619C374.904 252.683 374.626 252.715 374.328 252.715C374.018 252.715 373.725 252.656 373.448 252.539C373.181 252.422 372.968 252.246 372.808 252.011C372.648 251.766 372.568 251.467 372.568 251.115V245.147H371.416V244.283H372.568V241.467H373.656V244.283H375.576V245.147H373.656V250.811C373.677 251.11 373.784 251.334 373.976 251.483C374.178 251.632 374.408 251.707 374.664 251.707C374.962 251.707 375.234 251.659 375.48 251.563C375.725 251.456 375.874 251.382 375.928 251.339L376.216 252.219ZM377.495 249.179V244.283H378.583V248.987C378.583 249.936 378.743 250.646 379.063 251.115C379.394 251.584 379.879 251.819 380.519 251.819C380.946 251.819 381.356 251.728 381.751 251.547C382.156 251.355 382.514 251.088 382.823 250.747C383.132 250.395 383.367 249.99 383.527 249.531V244.283H384.615V251.307C384.615 251.456 384.647 251.568 384.711 251.643C384.775 251.707 384.871 251.744 384.999 251.755V252.619C384.871 252.63 384.77 252.635 384.695 252.635C384.62 252.646 384.551 252.651 384.487 252.651C384.274 252.63 384.087 252.544 383.927 252.395C383.778 252.246 383.698 252.064 383.687 251.851L383.655 250.731C383.292 251.371 382.796 251.872 382.167 252.235C381.548 252.598 380.876 252.779 380.151 252.779C379.276 252.779 378.615 252.475 378.167 251.867C377.719 251.259 377.495 250.363 377.495 249.179ZM394.083 252.619H392.995V247.963C392.995 246.982 392.851 246.267 392.563 245.819C392.275 245.36 391.822 245.131 391.203 245.131C390.776 245.131 390.355 245.238 389.939 245.451C389.523 245.654 389.155 245.936 388.835 246.299C388.526 246.651 388.302 247.056 388.163 247.515V252.619H387.075V244.283H388.067V246.171C388.291 245.766 388.584 245.414 388.947 245.115C389.31 244.806 389.72 244.566 390.179 244.395C390.638 244.224 391.112 244.139 391.603 244.139C392.062 244.139 392.451 244.224 392.771 244.395C393.091 244.566 393.347 244.811 393.539 245.131C393.731 245.44 393.87 245.819 393.955 246.267C394.04 246.704 394.083 247.195 394.083 247.739V252.619ZM400.003 252.779C399.406 252.779 398.851 252.667 398.339 252.443C397.827 252.208 397.384 251.894 397.011 251.499C396.638 251.094 396.344 250.63 396.131 250.107C395.928 249.584 395.827 249.024 395.827 248.427C395.827 247.648 396.003 246.934 396.355 246.283C396.718 245.632 397.214 245.115 397.843 244.731C398.472 244.336 399.187 244.139 399.987 244.139C400.808 244.139 401.523 244.336 402.131 244.731C402.75 245.126 403.235 245.648 403.587 246.299C403.939 246.939 404.115 247.643 404.115 248.411C404.115 248.496 404.115 248.582 404.115 248.667C404.115 248.742 404.11 248.8 404.099 248.843H396.963C397.016 249.44 397.182 249.974 397.459 250.443C397.747 250.902 398.115 251.27 398.563 251.547C399.022 251.814 399.518 251.947 400.051 251.947C400.595 251.947 401.107 251.808 401.587 251.531C402.078 251.254 402.419 250.891 402.611 250.443L403.555 250.699C403.384 251.094 403.123 251.451 402.771 251.771C402.419 252.091 402.003 252.342 401.523 252.523C401.054 252.694 400.547 252.779 400.003 252.779ZM396.931 248.059H403.091C403.048 247.451 402.883 246.918 402.595 246.459C402.318 246 401.95 245.643 401.491 245.387C401.043 245.12 400.547 244.987 400.003 244.987C399.459 244.987 398.963 245.12 398.515 245.387C398.067 245.643 397.699 246.006 397.411 246.475C397.134 246.934 396.974 247.462 396.931 248.059ZM412.864 255.003C412.064 255.003 411.339 254.8 410.688 254.395C410.037 254 409.552 253.478 409.232 252.827L409.952 252.283C410.251 252.806 410.656 253.227 411.168 253.547C411.691 253.867 412.261 254.027 412.88 254.027C413.413 254.027 413.888 253.91 414.304 253.675C414.731 253.44 415.067 253.115 415.312 252.699C415.568 252.283 415.696 251.803 415.696 251.259C415.696 250.736 415.573 250.278 415.328 249.883C415.093 249.478 414.768 249.163 414.352 248.939C413.947 248.715 413.488 248.603 412.976 248.603C412.485 248.603 412.016 248.715 411.568 248.939C411.12 249.152 410.757 249.467 410.48 249.883H409.472L410.736 243.483H416.224V244.491H411.552L410.768 248.571C411.045 248.272 411.387 248.043 411.792 247.883C412.197 247.712 412.635 247.627 413.104 247.627C413.797 247.627 414.421 247.782 414.976 248.091C415.541 248.4 415.989 248.827 416.32 249.371C416.651 249.915 416.816 250.539 416.816 251.243C416.816 251.99 416.635 252.646 416.272 253.211C415.92 253.776 415.445 254.214 414.848 254.523C414.251 254.843 413.589 255.003 412.864 255.003ZM426.303 247.931C426.303 248.87 426.127 249.707 425.775 250.443C425.433 251.168 424.959 251.739 424.351 252.155C423.743 252.571 423.055 252.779 422.287 252.779C421.519 252.779 420.831 252.571 420.223 252.155C419.625 251.739 419.151 251.168 418.799 250.443C418.447 249.707 418.271 248.87 418.271 247.931C418.271 246.992 418.447 246.16 418.799 245.435C419.151 244.699 419.625 244.123 420.223 243.707C420.831 243.28 421.519 243.067 422.287 243.067C423.055 243.067 423.743 243.28 424.351 243.707C424.959 244.123 425.433 244.699 425.775 245.435C426.127 246.16 426.303 246.992 426.303 247.931ZM425.199 247.931C425.199 247.174 425.076 246.507 424.831 245.931C424.585 245.355 424.244 244.907 423.807 244.587C423.369 244.256 422.863 244.091 422.287 244.091C421.711 244.091 421.204 244.256 420.767 244.587C420.329 244.907 419.983 245.355 419.727 245.931C419.481 246.507 419.359 247.174 419.359 247.931C419.359 248.688 419.481 249.355 419.727 249.931C419.983 250.507 420.329 250.955 420.767 251.275C421.204 251.595 421.711 251.755 422.287 251.755C422.863 251.755 423.369 251.595 423.807 251.275C424.244 250.944 424.585 250.496 424.831 249.931C425.076 249.355 425.199 248.688 425.199 247.931ZM436.1 247.931C436.1 248.87 435.924 249.707 435.572 250.443C435.23 251.168 434.756 251.739 434.148 252.155C433.54 252.571 432.852 252.779 432.084 252.779C431.316 252.779 430.628 252.571 430.02 252.155C429.422 251.739 428.948 251.168 428.596 250.443C428.244 249.707 428.068 248.87 428.068 247.931C428.068 246.992 428.244 246.16 428.596 245.435C428.948 244.699 429.422 244.123 430.02 243.707C430.628 243.28 431.316 243.067 432.084 243.067C432.852 243.067 433.54 243.28 434.148 243.707C434.756 244.123 435.23 244.699 435.572 245.435C435.924 246.16 436.1 246.992 436.1 247.931ZM434.996 247.931C434.996 247.174 434.873 246.507 434.628 245.931C434.382 245.355 434.041 244.907 433.604 244.587C433.166 244.256 432.66 244.091 432.084 244.091C431.508 244.091 431.001 244.256 430.564 244.587C430.126 244.907 429.78 245.355 429.524 245.931C429.278 246.507 429.156 247.174 429.156 247.931C429.156 248.688 429.278 249.355 429.524 249.931C429.78 250.507 430.126 250.955 430.564 251.275C431.001 251.595 431.508 251.755 432.084 251.755C432.66 251.755 433.166 251.595 433.604 251.275C434.041 250.944 434.382 250.496 434.628 249.931C434.873 249.355 434.996 248.688 434.996 247.931ZM441.735 246.859C441.735 246.166 441.852 245.488 442.087 244.827C442.332 244.155 442.684 243.547 443.143 243.003C443.601 242.448 444.167 242.011 444.839 241.691C445.511 241.36 446.273 241.195 447.127 241.195C448.14 241.195 449.004 241.43 449.719 241.899C450.444 242.358 450.977 242.95 451.319 243.675L450.439 244.219C450.193 243.718 449.884 243.323 449.51 243.035C449.137 242.736 448.737 242.523 448.311 242.395C447.895 242.267 447.479 242.203 447.063 242.203C446.38 242.203 445.777 242.342 445.255 242.619C444.732 242.886 444.289 243.248 443.927 243.707C443.575 244.155 443.308 244.662 443.127 245.227C442.945 245.782 442.855 246.347 442.855 246.923C442.855 247.552 442.961 248.155 443.174 248.731C443.388 249.307 443.687 249.819 444.071 250.267C444.455 250.704 444.903 251.056 445.415 251.323C445.937 251.579 446.503 251.707 447.111 251.707C447.537 251.707 447.975 251.632 448.423 251.483C448.871 251.334 449.287 251.104 449.671 250.795C450.065 250.486 450.38 250.086 450.615 249.595L451.543 250.075C451.308 250.64 450.945 251.12 450.455 251.515C449.964 251.91 449.415 252.208 448.807 252.411C448.209 252.614 447.623 252.715 447.047 252.715C446.268 252.715 445.553 252.55 444.903 252.219C444.252 251.878 443.687 251.43 443.207 250.875C442.737 250.31 442.375 249.68 442.118 248.987C441.863 248.283 441.735 247.574 441.735 246.859ZM456.783 252.779C456.186 252.779 455.631 252.667 455.119 252.443C454.618 252.208 454.181 251.894 453.807 251.499C453.445 251.094 453.162 250.635 452.959 250.123C452.757 249.6 452.655 249.051 452.655 248.475C452.655 247.878 452.757 247.323 452.959 246.811C453.162 246.288 453.45 245.83 453.823 245.435C454.197 245.03 454.634 244.715 455.135 244.491C455.647 244.256 456.202 244.139 456.799 244.139C457.397 244.139 457.946 244.256 458.447 244.491C458.949 244.715 459.386 245.03 459.759 245.435C460.133 245.83 460.421 246.288 460.623 246.811C460.826 247.323 460.927 247.878 460.927 248.475C460.927 249.051 460.826 249.6 460.623 250.123C460.421 250.635 460.133 251.094 459.759 251.499C459.397 251.894 458.959 252.208 458.447 252.443C457.946 252.667 457.391 252.779 456.783 252.779ZM453.759 248.491C453.759 249.11 453.893 249.675 454.159 250.187C454.437 250.688 454.805 251.088 455.263 251.387C455.722 251.675 456.229 251.819 456.783 251.819C457.338 251.819 457.845 251.67 458.303 251.371C458.762 251.072 459.13 250.667 459.407 250.155C459.685 249.632 459.823 249.067 459.823 248.459C459.823 247.84 459.685 247.275 459.407 246.763C459.13 246.251 458.762 245.846 458.303 245.547C457.845 245.248 457.338 245.099 456.783 245.099C456.229 245.099 455.722 245.254 455.263 245.563C454.815 245.872 454.453 246.283 454.175 246.795C453.898 247.296 453.759 247.862 453.759 248.491ZM466.907 245.243C466.182 245.264 465.542 245.467 464.987 245.851C464.443 246.235 464.059 246.763 463.835 247.435V252.619H462.747V244.283H463.771V246.283C464.059 245.696 464.438 245.222 464.907 244.859C465.387 244.496 465.894 244.294 466.427 244.251C466.534 244.24 466.624 244.235 466.699 244.235C466.784 244.235 466.854 244.24 466.907 244.251V245.243ZM472.612 252.779C471.919 252.779 471.295 252.598 470.74 252.235C470.196 251.872 469.764 251.424 469.444 250.891V256.027H468.356V244.283H469.332V245.899C469.663 245.376 470.106 244.955 470.66 244.635C471.215 244.304 471.807 244.139 472.436 244.139C473.012 244.139 473.54 244.262 474.02 244.507C474.5 244.742 474.916 245.062 475.268 245.467C475.62 245.872 475.892 246.336 476.084 246.859C476.287 247.371 476.388 247.904 476.388 248.459C476.388 249.238 476.228 249.958 475.908 250.619C475.599 251.27 475.162 251.792 474.596 252.187C474.031 252.582 473.37 252.779 472.612 252.779ZM472.308 251.819C472.767 251.819 473.178 251.728 473.54 251.547C473.903 251.355 474.212 251.099 474.468 250.779C474.735 250.459 474.938 250.102 475.076 249.707C475.215 249.302 475.284 248.886 475.284 248.459C475.284 248.011 475.204 247.584 475.044 247.179C474.895 246.774 474.676 246.416 474.388 246.107C474.1 245.798 473.77 245.552 473.396 245.371C473.023 245.19 472.618 245.099 472.18 245.099C471.903 245.099 471.615 245.152 471.316 245.259C471.018 245.366 470.73 245.52 470.452 245.723C470.186 245.915 469.962 246.134 469.78 246.379C469.599 246.624 469.487 246.886 469.444 247.163V249.723C469.615 250.118 469.844 250.475 470.132 250.795C470.42 251.104 470.751 251.355 471.124 251.547C471.508 251.728 471.903 251.819 472.308 251.819ZM481.783 252.779C481.186 252.779 480.631 252.667 480.119 252.443C479.618 252.208 479.181 251.894 478.807 251.499C478.445 251.094 478.162 250.635 477.959 250.123C477.757 249.6 477.655 249.051 477.655 248.475C477.655 247.878 477.757 247.323 477.959 246.811C478.162 246.288 478.45 245.83 478.823 245.435C479.197 245.03 479.634 244.715 480.135 244.491C480.647 244.256 481.202 244.139 481.799 244.139C482.397 244.139 482.946 244.256 483.447 244.491C483.949 244.715 484.386 245.03 484.759 245.435C485.133 245.83 485.421 246.288 485.623 246.811C485.826 247.323 485.927 247.878 485.927 248.475C485.927 249.051 485.826 249.6 485.623 250.123C485.421 250.635 485.133 251.094 484.759 251.499C484.397 251.894 483.959 252.208 483.447 252.443C482.946 252.667 482.391 252.779 481.783 252.779ZM478.759 248.491C478.759 249.11 478.893 249.675 479.159 250.187C479.437 250.688 479.805 251.088 480.263 251.387C480.722 251.675 481.229 251.819 481.783 251.819C482.338 251.819 482.845 251.67 483.303 251.371C483.762 251.072 484.13 250.667 484.407 250.155C484.685 249.632 484.823 249.067 484.823 248.459C484.823 247.84 484.685 247.275 484.407 246.763C484.13 246.251 483.762 245.846 483.303 245.547C482.845 245.248 482.338 245.099 481.783 245.099C481.229 245.099 480.722 245.254 480.263 245.563C479.815 245.872 479.453 246.283 479.175 246.795C478.898 247.296 478.759 247.862 478.759 248.491ZM491.907 245.243C491.182 245.264 490.542 245.467 489.987 245.851C489.443 246.235 489.059 246.763 488.835 247.435V252.619H487.747V244.283H488.771V246.283C489.059 245.696 489.438 245.222 489.907 244.859C490.387 244.496 490.894 244.294 491.427 244.251C491.534 244.24 491.624 244.235 491.699 244.235C491.784 244.235 491.854 244.24 491.907 244.251V245.243ZM492.653 250.219C492.653 249.696 492.802 249.248 493.101 248.875C493.4 248.491 493.81 248.198 494.333 247.995C494.866 247.782 495.48 247.675 496.173 247.675C496.578 247.675 497 247.707 497.437 247.771C497.874 247.835 498.264 247.931 498.605 248.059V247.355C498.605 246.651 498.397 246.091 497.981 245.675C497.565 245.259 496.989 245.051 496.253 245.051C495.805 245.051 495.362 245.136 494.925 245.307C494.498 245.467 494.05 245.707 493.581 246.027L493.165 245.259C493.709 244.886 494.242 244.608 494.765 244.427C495.288 244.235 495.821 244.139 496.365 244.139C497.389 244.139 498.2 244.432 498.797 245.019C499.394 245.606 499.693 246.416 499.693 247.451V251.307C499.693 251.456 499.725 251.568 499.789 251.643C499.853 251.707 499.954 251.744 500.093 251.755V252.619C499.976 252.63 499.874 252.64 499.789 252.651C499.704 252.662 499.64 252.662 499.597 252.651C499.33 252.64 499.128 252.555 498.989 252.395C498.85 252.235 498.776 252.064 498.765 251.883L498.749 251.275C498.376 251.755 497.89 252.128 497.293 252.395C496.696 252.651 496.088 252.779 495.469 252.779C494.936 252.779 494.45 252.667 494.013 252.443C493.586 252.208 493.25 251.899 493.005 251.515C492.77 251.12 492.653 250.688 492.653 250.219ZM498.237 250.859C498.354 250.71 498.445 250.566 498.509 250.427C498.573 250.288 498.605 250.166 498.605 250.059V248.843C498.242 248.704 497.864 248.598 497.469 248.523C497.085 248.448 496.696 248.411 496.301 248.411C495.522 248.411 494.893 248.566 494.413 248.875C493.933 249.184 493.693 249.606 493.693 250.139C493.693 250.448 493.773 250.742 493.933 251.019C494.093 251.286 494.328 251.51 494.637 251.691C494.946 251.862 495.309 251.947 495.725 251.947C496.248 251.947 496.733 251.846 497.181 251.643C497.64 251.44 497.992 251.179 498.237 250.859ZM505.981 252.219C505.896 252.251 505.763 252.31 505.581 252.395C505.4 252.48 505.181 252.555 504.925 252.619C504.669 252.683 504.392 252.715 504.093 252.715C503.784 252.715 503.491 252.656 503.213 252.539C502.947 252.422 502.733 252.246 502.573 252.011C502.413 251.766 502.333 251.467 502.333 251.115V245.147H501.181V244.283H502.333V241.467H503.421V244.283H505.341V245.147H503.421V250.811C503.443 251.11 503.549 251.334 503.741 251.483C503.944 251.632 504.173 251.707 504.429 251.707C504.728 251.707 505 251.659 505.245 251.563C505.491 251.456 505.64 251.382 505.693 251.339L505.981 252.219ZM510.8 252.779C510.203 252.779 509.648 252.667 509.136 252.443C508.624 252.208 508.181 251.894 507.808 251.499C507.435 251.094 507.141 250.63 506.928 250.107C506.725 249.584 506.624 249.024 506.624 248.427C506.624 247.648 506.8 246.934 507.152 246.283C507.515 245.632 508.011 245.115 508.64 244.731C509.269 244.336 509.984 244.139 510.784 244.139C511.605 244.139 512.32 244.336 512.928 244.731C513.547 245.126 514.032 245.648 514.384 246.299C514.736 246.939 514.912 247.643 514.912 248.411C514.912 248.496 514.912 248.582 514.912 248.667C514.912 248.742 514.907 248.8 514.896 248.843H507.76C507.813 249.44 507.979 249.974 508.256 250.443C508.544 250.902 508.912 251.27 509.36 251.547C509.819 251.814 510.315 251.947 510.848 251.947C511.392 251.947 511.904 251.808 512.384 251.531C512.875 251.254 513.216 250.891 513.408 250.443L514.352 250.699C514.181 251.094 513.92 251.451 513.568 251.771C513.216 252.091 512.8 252.342 512.32 252.523C511.851 252.694 511.344 252.779 510.8 252.779ZM507.728 248.059H513.888C513.845 247.451 513.68 246.918 513.392 246.459C513.115 246 512.747 245.643 512.288 245.387C511.84 245.12 511.344 244.987 510.8 244.987C510.256 244.987 509.76 245.12 509.312 245.387C508.864 245.643 508.496 246.006 508.208 246.475C507.931 246.934 507.771 247.462 507.728 248.059Z" fill="#BBBBBB"/>
<path d="M354.932 299.733C353.108 299.733 351.464 299.301 350 298.437C348.536 297.573 347.432 296.421 346.688 294.981L348.668 293.253C349.34 294.357 350.228 295.245 351.332 295.917C352.46 296.589 353.672 296.925 354.968 296.925C356.072 296.925 357.056 296.685 357.92 296.205C358.784 295.725 359.468 295.065 359.972 294.225C360.476 293.361 360.728 292.377 360.728 291.273C360.728 290.193 360.476 289.245 359.972 288.429C359.492 287.613 358.832 286.977 357.992 286.521C357.176 286.065 356.252 285.837 355.22 285.837C354.188 285.837 353.216 286.065 352.304 286.521C351.416 286.977 350.684 287.625 350.108 288.465H347.264L350.144 273.813H362.564V276.729H352.484L350.936 284.865C351.464 284.313 352.124 283.881 352.916 283.569C353.732 283.233 354.632 283.065 355.616 283.065C357.2 283.065 358.616 283.413 359.864 284.109C361.136 284.805 362.132 285.765 362.852 286.989C363.596 288.213 363.968 289.629 363.968 291.237C363.968 292.917 363.56 294.393 362.744 295.665C361.952 296.961 360.872 297.957 359.504 298.653C358.136 299.373 356.612 299.733 354.932 299.733ZM385.383 283.821C385.383 285.933 384.987 287.817 384.195 289.473C383.403 291.105 382.323 292.389 380.955 293.325C379.587 294.261 378.027 294.729 376.275 294.729C374.523 294.729 372.963 294.261 371.595 293.325C370.227 292.389 369.147 291.105 368.355 289.473C367.563 287.817 367.167 285.933 367.167 283.821C367.167 281.709 367.563 279.837 368.355 278.205C369.147 276.549 370.227 275.253 371.595 274.317C372.963 273.357 374.523 272.877 376.275 272.877C378.027 272.877 379.587 273.357 380.955 274.317C382.323 275.253 383.403 276.549 384.195 278.205C384.987 279.837 385.383 281.709 385.383 283.821ZM382.179 283.821C382.179 282.237 381.927 280.845 381.423 279.645C380.919 278.445 380.223 277.509 379.335 276.837C378.447 276.165 377.427 275.829 376.275 275.829C375.099 275.829 374.067 276.165 373.179 276.837C372.291 277.509 371.595 278.445 371.091 279.645C370.587 280.845 370.335 282.237 370.335 283.821C370.335 285.405 370.587 286.797 371.091 287.997C371.595 289.173 372.291 290.097 373.179 290.769C374.067 291.441 375.099 291.777 376.275 291.777C377.427 291.777 378.447 291.441 379.335 290.769C380.223 290.097 380.919 289.173 381.423 287.997C381.927 286.797 382.179 285.405 382.179 283.821ZM394.212 278.961C393.204 278.961 392.28 278.733 391.44 278.277C390.6 277.797 389.928 277.161 389.424 276.369C388.92 275.553 388.668 274.665 388.668 273.705C388.668 272.721 388.92 271.833 389.424 271.041C389.928 270.249 390.6 269.625 391.44 269.169C392.28 268.689 393.204 268.449 394.212 268.449C395.244 268.449 396.18 268.689 397.02 269.169C397.86 269.625 398.52 270.249 399 271.041C399.504 271.833 399.756 272.709 399.756 273.669C399.756 274.653 399.504 275.553 399 276.369C398.52 277.161 397.86 277.797 397.02 278.277C396.18 278.733 395.244 278.961 394.212 278.961ZM394.212 277.233C394.812 277.233 395.352 277.077 395.832 276.765C396.336 276.429 396.732 275.997 397.02 275.469C397.308 274.917 397.452 274.329 397.452 273.705C397.452 273.057 397.296 272.469 396.984 271.941C396.696 271.389 396.3 270.957 395.796 270.645C395.316 270.333 394.788 270.177 394.212 270.177C393.612 270.177 393.06 270.345 392.556 270.681C392.076 270.993 391.692 271.425 391.404 271.977C391.116 272.505 390.972 273.081 390.972 273.705C390.972 274.353 391.116 274.941 391.404 275.469C391.716 275.997 392.112 276.429 392.592 276.765C393.096 277.077 393.636 277.233 394.212 277.233ZM406.848 294.729C405.816 294.729 404.88 294.501 404.04 294.045C403.224 293.565 402.564 292.929 402.06 292.137C401.556 291.321 401.304 290.433 401.304 289.473C401.304 288.489 401.556 287.601 402.06 286.809C402.564 286.017 403.224 285.393 404.04 284.937C404.88 284.457 405.816 284.217 406.848 284.217C407.88 284.217 408.816 284.457 409.656 284.937C410.496 285.393 411.156 286.017 411.636 286.809C412.14 287.601 412.392 288.477 412.392 289.437C412.392 290.421 412.14 291.321 411.636 292.137C411.156 292.929 410.496 293.565 409.656 294.045C408.816 294.501 407.88 294.729 406.848 294.729ZM406.848 293.001C407.448 293.001 407.988 292.845 408.468 292.533C408.972 292.197 409.368 291.765 409.656 291.237C409.944 290.685 410.088 290.097 410.088 289.473C410.088 288.825 409.932 288.237 409.62 287.709C409.332 287.157 408.936 286.725 408.432 286.413C407.952 286.101 407.424 285.945 406.848 285.945C406.248 285.945 405.696 286.113 405.192 286.449C404.712 286.761 404.328 287.193 404.04 287.745C403.752 288.273 403.608 288.849 403.608 289.473C403.608 290.121 403.752 290.709 404.04 291.237C404.352 291.765 404.748 292.197 405.228 292.533C405.732 292.845 406.272 293.001 406.848 293.001ZM389.892 293.181L399.972 281.049L409.62 268.629L411.168 269.961L401.196 282.021L391.404 294.549L389.892 293.181Z" fill="white"/>
</g>
<g filter="url(#filter2_d_773_17588)">
<rect x="339.5" y="8.00708" width="197.5" height="95.75" rx="12" fill="#1C1C1C" shape-rendering="crispEdges"/>
<circle cx="359" cy="32.5071" r="4.5" fill="#01B969"/>
<path d="M372.424 38.0071V26.6471H373.544V38.0071H372.424ZM383.177 38.0071H382.089V33.3511C382.089 32.3697 381.945 31.6551 381.657 31.2071C381.369 30.7484 380.915 30.5191 380.297 30.5191C379.87 30.5191 379.449 30.6257 379.033 30.8391C378.617 31.0417 378.249 31.3244 377.929 31.6871C377.619 32.0391 377.395 32.4444 377.257 32.9031V38.0071H376.169V29.6711H377.161V31.5591C377.385 31.1537 377.678 30.8017 378.041 30.5031C378.403 30.1937 378.814 29.9537 379.273 29.7831C379.731 29.6124 380.206 29.5271 380.697 29.5271C381.155 29.5271 381.545 29.6124 381.865 29.7831C382.185 29.9537 382.441 30.1991 382.633 30.5191C382.825 30.8284 382.963 31.2071 383.049 31.6551C383.134 32.0924 383.177 32.5831 383.177 33.1271V38.0071ZM389.419 37.6071C389.333 37.6391 389.2 37.6977 389.019 37.7831C388.837 37.8684 388.619 37.9431 388.363 38.0071C388.107 38.0711 387.829 38.1031 387.531 38.1031C387.221 38.1031 386.928 38.0444 386.651 37.9271C386.384 37.8097 386.171 37.6337 386.011 37.3991C385.851 37.1537 385.771 36.8551 385.771 36.5031V30.5351H384.619V29.6711H385.771V26.8551H386.859V29.6711H388.779V30.5351H386.859V36.1991C386.88 36.4977 386.987 36.7217 387.179 36.8711C387.381 37.0204 387.611 37.0951 387.867 37.0951C388.165 37.0951 388.437 37.0471 388.683 36.9511C388.928 36.8444 389.077 36.7697 389.131 36.7271L389.419 37.6071ZM394.238 38.1671C393.64 38.1671 393.086 38.0551 392.574 37.8311C392.062 37.5964 391.619 37.2817 391.246 36.8871C390.872 36.4817 390.579 36.0177 390.366 35.4951C390.163 34.9724 390.062 34.4124 390.062 33.8151C390.062 33.0364 390.238 32.3217 390.59 31.6711C390.952 31.0204 391.448 30.5031 392.078 30.1191C392.707 29.7244 393.422 29.5271 394.222 29.5271C395.043 29.5271 395.758 29.7244 396.366 30.1191C396.984 30.5137 397.47 31.0364 397.822 31.6871C398.174 32.3271 398.35 33.0311 398.35 33.7991C398.35 33.8844 398.35 33.9697 398.35 34.0551C398.35 34.1297 398.344 34.1884 398.334 34.2311H391.198C391.251 34.8284 391.416 35.3617 391.694 35.8311C391.982 36.2897 392.35 36.6577 392.798 36.9351C393.256 37.2017 393.752 37.3351 394.286 37.3351C394.83 37.3351 395.342 37.1964 395.822 36.9191C396.312 36.6417 396.654 36.2791 396.846 35.8311L397.79 36.0871C397.619 36.4817 397.358 36.8391 397.006 37.1591C396.654 37.4791 396.238 37.7297 395.758 37.9111C395.288 38.0817 394.782 38.1671 394.238 38.1671ZM391.166 33.4471H397.326C397.283 32.8391 397.118 32.3057 396.83 31.8471C396.552 31.3884 396.184 31.0311 395.726 30.7751C395.278 30.5084 394.782 30.3751 394.238 30.3751C393.694 30.3751 393.198 30.5084 392.75 30.7751C392.302 31.0311 391.934 31.3937 391.646 31.8631C391.368 32.3217 391.208 32.8497 391.166 33.4471ZM404.188 30.6311C403.463 30.6524 402.823 30.8551 402.268 31.2391C401.724 31.6231 401.34 32.1511 401.116 32.8231V38.0071H400.028V29.6711H401.052V31.6711C401.34 31.0844 401.719 30.6097 402.188 30.2471C402.668 29.8844 403.175 29.6817 403.708 29.6391C403.815 29.6284 403.905 29.6231 403.98 29.6231C404.065 29.6231 404.135 29.6284 404.188 29.6391V30.6311ZM412.646 38.0071H411.558V33.3511C411.558 32.3697 411.414 31.6551 411.126 31.2071C410.838 30.7484 410.384 30.5191 409.766 30.5191C409.339 30.5191 408.918 30.6257 408.502 30.8391C408.086 31.0417 407.718 31.3244 407.398 31.6871C407.088 32.0391 406.864 32.4444 406.726 32.9031V38.0071H405.638V29.6711H406.63V31.5591C406.854 31.1537 407.147 30.8017 407.51 30.5031C407.872 30.1937 408.283 29.9537 408.742 29.7831C409.2 29.6124 409.675 29.5271 410.166 29.5271C410.624 29.5271 411.014 29.6124 411.334 29.7831C411.654 29.9537 411.91 30.1991 412.102 30.5191C412.294 30.8284 412.432 31.2071 412.517 31.6551C412.603 32.0924 412.646 32.5831 412.646 33.1271V38.0071ZM414.294 35.6071C414.294 35.0844 414.443 34.6364 414.742 34.2631C415.04 33.8791 415.451 33.5857 415.974 33.3831C416.507 33.1697 417.12 33.0631 417.814 33.0631C418.219 33.0631 418.64 33.0951 419.078 33.1591C419.515 33.2231 419.904 33.3191 420.246 33.4471V32.7431C420.246 32.0391 420.038 31.4791 419.622 31.0631C419.206 30.6471 418.63 30.4391 417.894 30.4391C417.446 30.4391 417.003 30.5244 416.566 30.6951C416.139 30.8551 415.691 31.0951 415.222 31.4151L414.806 30.6471C415.35 30.2737 415.883 29.9964 416.406 29.8151C416.928 29.6231 417.462 29.5271 418.006 29.5271C419.03 29.5271 419.84 29.8204 420.438 30.4071C421.035 30.9937 421.334 31.8044 421.334 32.8391V36.6951C421.334 36.8444 421.366 36.9564 421.43 37.0311C421.494 37.0951 421.595 37.1324 421.734 37.1431V38.0071C421.616 38.0177 421.515 38.0284 421.43 38.0391C421.344 38.0497 421.28 38.0497 421.238 38.0391C420.971 38.0284 420.768 37.9431 420.63 37.7831C420.491 37.6231 420.416 37.4524 420.406 37.2711L420.39 36.6631C420.016 37.1431 419.531 37.5164 418.934 37.7831C418.336 38.0391 417.728 38.1671 417.11 38.1671C416.576 38.1671 416.091 38.0551 415.654 37.8311C415.227 37.5964 414.891 37.2871 414.646 36.9031C414.411 36.5084 414.294 36.0764 414.294 35.6071ZM419.878 36.2471C419.995 36.0977 420.086 35.9537 420.15 35.8151C420.214 35.6764 420.246 35.5537 420.246 35.4471V34.2311C419.883 34.0924 419.504 33.9857 419.11 33.9111C418.726 33.8364 418.336 33.7991 417.942 33.7991C417.163 33.7991 416.534 33.9537 416.054 34.2631C415.574 34.5724 415.334 34.9937 415.334 35.5271C415.334 35.8364 415.414 36.1297 415.574 36.4071C415.734 36.6737 415.968 36.8977 416.278 37.0791C416.587 37.2497 416.95 37.3351 417.366 37.3351C417.888 37.3351 418.374 37.2337 418.822 37.0311C419.28 36.8284 419.632 36.5671 419.878 36.2471ZM427.622 37.6071C427.537 37.6391 427.403 37.6977 427.222 37.7831C427.041 37.8684 426.822 37.9431 426.566 38.0071C426.31 38.0711 426.033 38.1031 425.734 38.1031C425.425 38.1031 425.131 38.0444 424.854 37.9271C424.587 37.8097 424.374 37.6337 424.214 37.3991C424.054 37.1537 423.974 36.8551 423.974 36.5031V30.5351H422.822V29.6711H423.974V26.8551H425.062V29.6711H426.982V30.5351H425.062V36.1991C425.083 36.4977 425.19 36.7217 425.382 36.8711C425.585 37.0204 425.814 37.0951 426.07 37.0951C426.369 37.0951 426.641 37.0471 426.886 36.9511C427.131 36.8444 427.281 36.7697 427.334 36.7271L427.622 37.6071ZM428.981 38.0071V29.6711H430.069V38.0071H428.981ZM428.981 27.9271V26.3271H430.069V27.9271H428.981ZM436.018 38.1671C435.42 38.1671 434.866 38.0551 434.354 37.8311C433.852 37.5964 433.415 37.2817 433.042 36.8871C432.679 36.4817 432.396 36.0231 432.194 35.5111C431.991 34.9884 431.89 34.4391 431.89 33.8631C431.89 33.2657 431.991 32.7111 432.194 32.1991C432.396 31.6764 432.684 31.2177 433.058 30.8231C433.431 30.4177 433.868 30.1031 434.37 29.8791C434.882 29.6444 435.436 29.5271 436.034 29.5271C436.631 29.5271 437.18 29.6444 437.682 29.8791C438.183 30.1031 438.62 30.4177 438.994 30.8231C439.367 31.2177 439.655 31.6764 439.858 32.1991C440.06 32.7111 440.162 33.2657 440.162 33.8631C440.162 34.4391 440.06 34.9884 439.858 35.5111C439.655 36.0231 439.367 36.4817 438.994 36.8871C438.631 37.2817 438.194 37.5964 437.682 37.8311C437.18 38.0551 436.626 38.1671 436.018 38.1671ZM432.994 33.8791C432.994 34.4977 433.127 35.0631 433.394 35.5751C433.671 36.0764 434.039 36.4764 434.498 36.7751C434.956 37.0631 435.463 37.2071 436.018 37.2071C436.572 37.2071 437.079 37.0577 437.538 36.7591C437.996 36.4604 438.364 36.0551 438.642 35.5431C438.919 35.0204 439.058 34.4551 439.058 33.8471C439.058 33.2284 438.919 32.6631 438.642 32.1511C438.364 31.6391 437.996 31.2337 437.538 30.9351C437.079 30.6364 436.572 30.4871 436.018 30.4871C435.463 30.4871 434.956 30.6417 434.498 30.9511C434.05 31.2604 433.687 31.6711 433.41 32.1831C433.132 32.6844 432.994 33.2497 432.994 33.8791ZM448.989 38.0071H447.901V33.3511C447.901 32.3697 447.757 31.6551 447.469 31.2071C447.181 30.7484 446.728 30.5191 446.109 30.5191C445.683 30.5191 445.261 30.6257 444.845 30.8391C444.429 31.0417 444.061 31.3244 443.741 31.6871C443.432 32.0391 443.208 32.4444 443.069 32.9031V38.0071H441.981V29.6711H442.973V31.5591C443.197 31.1537 443.491 30.8017 443.853 30.5031C444.216 30.1937 444.627 29.9537 445.085 29.7831C445.544 29.6124 446.019 29.5271 446.509 29.5271C446.968 29.5271 447.357 29.6124 447.677 29.7831C447.997 29.9537 448.253 30.1991 448.445 30.5191C448.637 30.8284 448.776 31.2071 448.861 31.6551C448.947 32.0924 448.989 32.5831 448.989 33.1271V38.0071ZM450.637 35.6071C450.637 35.0844 450.787 34.6364 451.085 34.2631C451.384 33.8791 451.795 33.5857 452.317 33.3831C452.851 33.1697 453.464 33.0631 454.157 33.0631C454.563 33.0631 454.984 33.0951 455.421 33.1591C455.859 33.2231 456.248 33.3191 456.589 33.4471V32.7431C456.589 32.0391 456.381 31.4791 455.965 31.0631C455.549 30.6471 454.973 30.4391 454.237 30.4391C453.789 30.4391 453.347 30.5244 452.909 30.6951C452.483 30.8551 452.035 31.0951 451.565 31.4151L451.149 30.6471C451.693 30.2737 452.227 29.9964 452.749 29.8151C453.272 29.6231 453.805 29.5271 454.349 29.5271C455.373 29.5271 456.184 29.8204 456.781 30.4071C457.379 30.9937 457.677 31.8044 457.677 32.8391V36.6951C457.677 36.8444 457.709 36.9564 457.773 37.0311C457.837 37.0951 457.939 37.1324 458.077 37.1431V38.0071C457.96 38.0177 457.859 38.0284 457.773 38.0391C457.688 38.0497 457.624 38.0497 457.581 38.0391C457.315 38.0284 457.112 37.9431 456.973 37.7831C456.835 37.6231 456.76 37.4524 456.749 37.2711L456.733 36.6631C456.36 37.1431 455.875 37.5164 455.277 37.7831C454.68 38.0391 454.072 38.1671 453.453 38.1671C452.92 38.1671 452.435 38.0551 451.997 37.8311C451.571 37.5964 451.235 37.2871 450.989 36.9031C450.755 36.5084 450.637 36.0764 450.637 35.6071ZM456.221 36.2471C456.339 36.0977 456.429 35.9537 456.493 35.8151C456.557 35.6764 456.589 35.5537 456.589 35.4471V34.2311C456.227 34.0924 455.848 33.9857 455.453 33.9111C455.069 33.8364 454.68 33.7991 454.285 33.7991C453.507 33.7991 452.877 33.9537 452.397 34.2631C451.917 34.5724 451.677 34.9937 451.677 35.5271C451.677 35.8364 451.757 36.1297 451.917 36.4071C452.077 36.6737 452.312 36.8977 452.621 37.0791C452.931 37.2497 453.293 37.3351 453.709 37.3351C454.232 37.3351 454.717 37.2337 455.165 37.0311C455.624 36.8284 455.976 36.5671 456.221 36.2471ZM460.076 26.3271H461.164V36.1191C461.164 36.5351 461.239 36.8071 461.388 36.9351C461.537 37.0631 461.719 37.1271 461.932 37.1271C462.124 37.1271 462.316 37.1057 462.508 37.0631C462.7 37.0204 462.865 36.9777 463.004 36.9351L463.196 37.8151C462.993 37.9004 462.743 37.9697 462.444 38.0231C462.156 38.0764 461.905 38.1031 461.692 38.1031C461.201 38.1031 460.807 37.9591 460.508 37.6711C460.22 37.3831 460.076 36.9884 460.076 36.4871V26.3271ZM471.225 26.6471H472.169L476.889 38.0071H475.705L474.233 34.4551H469.129L467.673 38.0071H466.473L471.225 26.6471ZM473.977 33.5751L471.689 27.9591L469.369 33.5751H473.977ZM488.243 29.6711H489.315L485.731 38.0071H484.787L483.043 33.8631L481.315 38.0071H480.371L476.787 29.6711H477.843L480.883 36.8871L482.419 33.1271L481.011 29.6871H481.987L483.043 32.3911L484.115 29.6871H485.075L483.683 33.1271L485.219 36.8871L488.243 29.6711ZM489.887 35.6071C489.887 35.0844 490.037 34.6364 490.335 34.2631C490.634 33.8791 491.045 33.5857 491.567 33.3831C492.101 33.1697 492.714 33.0631 493.407 33.0631C493.813 33.0631 494.234 33.0951 494.671 33.1591C495.109 33.2231 495.498 33.3191 495.839 33.4471V32.7431C495.839 32.0391 495.631 31.4791 495.215 31.0631C494.799 30.6471 494.223 30.4391 493.487 30.4391C493.039 30.4391 492.597 30.5244 492.159 30.6951C491.733 30.8551 491.285 31.0951 490.815 31.4151L490.399 30.6471C490.943 30.2737 491.477 29.9964 491.999 29.8151C492.522 29.6231 493.055 29.5271 493.599 29.5271C494.623 29.5271 495.434 29.8204 496.031 30.4071C496.629 30.9937 496.927 31.8044 496.927 32.8391V36.6951C496.927 36.8444 496.959 36.9564 497.023 37.0311C497.087 37.0951 497.189 37.1324 497.327 37.1431V38.0071C497.21 38.0177 497.109 38.0284 497.023 38.0391C496.938 38.0497 496.874 38.0497 496.831 38.0391C496.565 38.0284 496.362 37.9431 496.223 37.7831C496.085 37.6231 496.01 37.4524 495.999 37.2711L495.983 36.6631C495.61 37.1431 495.125 37.5164 494.527 37.7831C493.93 38.0391 493.322 38.1671 492.703 38.1671C492.17 38.1671 491.685 38.0551 491.247 37.8311C490.821 37.5964 490.485 37.2871 490.239 36.9031C490.005 36.5084 489.887 36.0764 489.887 35.6071ZM495.471 36.2471C495.589 36.0977 495.679 35.9537 495.743 35.8151C495.807 35.6764 495.839 35.5537 495.839 35.4471V34.2311C495.477 34.0924 495.098 33.9857 494.703 33.9111C494.319 33.8364 493.93 33.7991 493.535 33.7991C492.757 33.7991 492.127 33.9537 491.647 34.2631C491.167 34.5724 490.927 34.9937 490.927 35.5271C490.927 35.8364 491.007 36.1297 491.167 36.4071C491.327 36.6737 491.562 36.8977 491.871 37.0791C492.181 37.2497 492.543 37.3351 492.959 37.3351C493.482 37.3351 493.967 37.2337 494.415 37.0311C494.874 36.8284 495.226 36.5671 495.471 36.2471ZM503.438 30.6311C502.713 30.6524 502.073 30.8551 501.518 31.2391C500.974 31.6231 500.59 32.1511 500.366 32.8231V38.0071H499.278V29.6711H500.302V31.6711C500.59 31.0844 500.969 30.6097 501.438 30.2471C501.918 29.8844 502.425 29.6817 502.958 29.6391C503.065 29.6284 503.155 29.6231 503.23 29.6231C503.315 29.6231 503.385 29.6284 503.438 29.6391V30.6311ZM504.109 33.8631C504.109 33.0737 504.269 32.3537 504.589 31.7031C504.919 31.0417 505.373 30.5137 505.949 30.1191C506.525 29.7244 507.181 29.5271 507.917 29.5271C508.61 29.5271 509.229 29.7137 509.773 30.0871C510.327 30.4497 510.759 30.8924 511.069 31.4151V26.3271H512.157V36.6951C512.157 36.8444 512.189 36.9564 512.253 37.0311C512.317 37.0951 512.413 37.1324 512.541 37.1431V38.0071C512.327 38.0391 512.162 38.0497 512.045 38.0391C511.821 38.0284 511.623 37.9377 511.453 37.7671C511.282 37.5964 511.197 37.4097 511.197 37.2071V36.3911C510.866 36.9351 510.418 37.3671 509.853 37.6871C509.287 38.0071 508.701 38.1671 508.093 38.1671C507.517 38.1671 506.983 38.0497 506.493 37.8151C506.013 37.5804 505.591 37.2604 505.229 36.8551C504.877 36.4497 504.599 35.9911 504.397 35.4791C504.205 34.9564 504.109 34.4177 504.109 33.8631ZM511.069 35.1431V32.5671C510.93 32.1831 510.706 31.8364 510.397 31.5271C510.087 31.2071 509.735 30.9564 509.341 30.7751C508.957 30.5831 508.573 30.4871 508.189 30.4871C507.741 30.4871 507.335 30.5831 506.973 30.7751C506.61 30.9564 506.295 31.2071 506.029 31.5271C505.773 31.8471 505.575 32.2097 505.437 32.6151C505.298 33.0204 505.229 33.4364 505.229 33.8631C505.229 34.3111 505.303 34.7377 505.453 35.1431C505.613 35.5484 505.837 35.9111 506.125 36.2311C506.413 36.5404 506.743 36.7804 507.117 36.9511C507.49 37.1217 507.895 37.2071 508.333 37.2071C508.61 37.2071 508.898 37.1537 509.197 37.0471C509.495 36.9404 509.778 36.7964 510.045 36.6151C510.322 36.4231 510.551 36.1991 510.733 35.9431C510.914 35.6871 511.026 35.4204 511.069 35.1431ZM517.358 38.1671C516.675 38.1671 516.041 38.0551 515.454 37.8311C514.867 37.6071 514.361 37.2657 513.934 36.8071L514.382 36.0391C514.851 36.4764 515.321 36.7964 515.79 36.9991C516.27 37.1911 516.777 37.2871 517.31 37.2871C517.961 37.2871 518.489 37.1591 518.894 36.9031C519.299 36.6364 519.502 36.2577 519.502 35.7671C519.502 35.4364 519.401 35.1857 519.198 35.0151C519.006 34.8337 518.723 34.6897 518.35 34.5831C517.987 34.4657 517.55 34.3431 517.038 34.2151C516.462 34.0551 515.977 33.8897 515.582 33.7191C515.198 33.5377 514.905 33.3137 514.702 33.0471C514.51 32.7697 514.414 32.4124 514.414 31.9751C514.414 31.4311 514.547 30.9831 514.814 30.6311C515.091 30.2684 515.465 29.9964 515.934 29.8151C516.414 29.6231 516.947 29.5271 517.534 29.5271C518.174 29.5271 518.739 29.6284 519.23 29.8311C519.721 30.0337 520.121 30.3164 520.43 30.6791L519.902 31.4151C519.603 31.0737 519.246 30.8231 518.83 30.6631C518.425 30.4924 517.971 30.4071 517.47 30.4071C517.129 30.4071 516.803 30.4551 516.494 30.5511C516.185 30.6364 515.929 30.7857 515.726 30.9991C515.534 31.2017 515.438 31.4844 515.438 31.8471C515.438 32.1457 515.513 32.3804 515.662 32.5511C515.811 32.7111 516.035 32.8497 516.334 32.9671C516.633 33.0737 517.001 33.1911 517.438 33.3191C518.067 33.4897 518.617 33.6657 519.086 33.8471C519.555 34.0177 519.918 34.2417 520.174 34.5191C520.43 34.7964 520.558 35.1857 520.558 35.6871C520.558 36.4657 520.265 37.0737 519.678 37.5111C519.091 37.9484 518.318 38.1671 517.358 38.1671Z" fill="#BBBBBB"/>
<path d="M371.048 79.7571C371.048 78.7971 371.12 77.8971 371.264 77.0571C371.432 76.2171 371.72 75.4131 372.128 74.6451C372.56 73.8771 373.16 73.1451 373.928 72.4491C374.696 71.7291 375.692 71.0331 376.916 70.3611C377.636 69.9531 378.356 69.5691 379.076 69.2091C379.82 68.8491 380.504 68.4651 381.128 68.0571C381.776 67.6491 382.292 67.2051 382.676 66.7251C383.06 66.2211 383.252 65.6451 383.252 64.9971C383.252 64.4451 383.084 63.9171 382.748 63.4131C382.436 62.8851 381.956 62.4651 381.308 62.1531C380.684 61.8171 379.904 61.6491 378.968 61.6491C378.248 61.6491 377.588 61.7451 376.988 61.9371C376.412 62.1291 375.884 62.3811 375.404 62.6931C374.948 62.9811 374.54 63.2931 374.18 63.6291C373.844 63.9411 373.556 64.2291 373.316 64.4931L371.336 62.2611C371.528 62.0451 371.852 61.7571 372.308 61.3971C372.764 61.0131 373.34 60.6291 374.036 60.2451C374.732 59.8611 375.536 59.5371 376.448 59.2731C377.384 58.9851 378.404 58.8411 379.508 58.8411C380.996 58.8411 382.268 59.1051 383.324 59.6331C384.404 60.1371 385.232 60.8331 385.808 61.7211C386.384 62.5851 386.672 63.5571 386.672 64.6371C386.672 65.5731 386.468 66.3891 386.06 67.0851C385.676 67.7811 385.172 68.3931 384.548 68.9211C383.948 69.4491 383.312 69.9051 382.64 70.2891C381.992 70.6491 381.404 70.9611 380.876 71.2251C379.796 71.7531 378.872 72.2331 378.104 72.6651C377.336 73.0971 376.7 73.5291 376.196 73.9611C375.716 74.3691 375.32 74.8011 375.008 75.2571C374.72 75.7131 374.504 76.2531 374.36 76.8771H387.068V79.7571H371.048ZM408.926 69.2091C408.926 71.3211 408.53 73.2051 407.738 74.8611C406.946 76.4931 405.866 77.7771 404.498 78.7131C403.13 79.6491 401.57 80.1171 399.818 80.1171C398.066 80.1171 396.506 79.6491 395.138 78.7131C393.77 77.7771 392.69 76.4931 391.898 74.8611C391.106 73.2051 390.71 71.3211 390.71 69.2091C390.71 67.0971 391.106 65.2251 391.898 63.5931C392.69 61.9371 393.77 60.6411 395.138 59.7051C396.506 58.7451 398.066 58.2651 399.818 58.2651C401.57 58.2651 403.13 58.7451 404.498 59.7051C405.866 60.6411 406.946 61.9371 407.738 63.5931C408.53 65.2251 408.926 67.0971 408.926 69.2091ZM405.722 69.2091C405.722 67.6251 405.47 66.2331 404.966 65.0331C404.462 63.8331 403.766 62.8971 402.878 62.2251C401.99 61.5531 400.97 61.2171 399.818 61.2171C398.642 61.2171 397.61 61.5531 396.722 62.2251C395.834 62.8971 395.138 63.8331 394.634 65.0331C394.13 66.2331 393.878 67.6251 393.878 69.2091C393.878 70.7931 394.13 72.1851 394.634 73.3851C395.138 74.5611 395.834 75.4851 396.722 76.1571C397.61 76.8291 398.642 77.1651 399.818 77.1651C400.97 77.1651 401.99 76.8291 402.878 76.1571C403.766 75.4851 404.462 74.5611 404.966 73.3851C405.47 72.1851 405.722 70.7931 405.722 69.2091Z" fill="white"/>
</g>
<path d="M207.523 111.052H235.121C235.99 111.052 236.781 111.552 237.154 112.337L247.571 134.269" stroke="#1C1C1C" stroke-width="1.5"/>
<circle cx="247.572" cy="134.269" r="3.75" fill="#1C1C1C"/>
<circle cx="315.5" cy="126.411" r="3.75" fill="#1C1C1C"/>
<circle cx="300.445" cy="197.783" r="3.75" fill="#1C1C1C"/>
<path d="M301.472 198.906L317.265 208.921C317.915 209.334 318.31 210.051 318.31 210.821V230.528" stroke="#1C1C1C" stroke-width="1.5"/>
<defs>
<filter id="filter0_d_773_17588" x="0.94873" y="40.5071" width="245.5" height="115.75" filterUnits="userSpaceOnUse" color-interpolation-filters="sRGB">
<feFlood flood-opacity="0" result="BackgroundImageFix"/>
<feColorMatrix in="SourceAlpha" type="matrix" values="0 0 0 0 0 0 0 0 0 0 0 0 0 0 0 0 0 0 127 0" result="hardAlpha"/>
<feOffset dy="2"/>
<feGaussianBlur stdDeviation="5"/>
<feComposite in2="hardAlpha" operator="out"/>
<feColorMatrix type="matrix" values="0 0 0 0 1 0 0 0 0 1 0 0 0 0 1 0 0 0 0.05 0"/>
<feBlend mode="normal" in2="BackgroundImageFix" result="effect1_dropShadow_773_17588"/>
<feBlend mode="normal" in="SourceGraphic" in2="effect1_dropShadow_773_17588" result="shape"/>
</filter>
<filter id="filter1_d_773_17588" x="305.5" y="214.619" width="235.5" height="115.75" filterUnits="userSpaceOnUse" color-interpolation-filters="sRGB">
<feFlood flood-opacity="0" result="BackgroundImageFix"/>
<feColorMatrix in="SourceAlpha" type="matrix" values="0 0 0 0 0 0 0 0 0 0 0 0 0 0 0 0 0 0 127 0" result="hardAlpha"/>
<feOffset dy="2"/>
<feGaussianBlur stdDeviation="5"/>
<feComposite in2="hardAlpha" operator="out"/>
<feColorMatrix type="matrix" values="0 0 0 0 1 0 0 0 0 1 0 0 0 0 1 0 0 0 0.05 0"/>
<feBlend mode="normal" in2="BackgroundImageFix" result="effect1_dropShadow_773_17588"/>
<feBlend mode="normal" in="SourceGraphic" in2="effect1_dropShadow_773_17588" result="shape"/>
</filter>
<filter id="filter2_d_773_17588" x="329.5" y="0.00708008" width="217.5" height="115.75" filterUnits="userSpaceOnUse" color-interpolation-filters="sRGB">
<feFlood flood-opacity="0" result="BackgroundImageFix"/>
<feColorMatrix in="SourceAlpha" type="matrix" values="0 0 0 0 0 0 0 0 0 0 0 0 0 0 0 0 0 0 127 0" result="hardAlpha"/>
<feOffset dy="2"/>
<feGaussianBlur stdDeviation="5"/>
<feComposite in2="hardAlpha" operator="out"/>
<feColorMatrix type="matrix" values="0 0 0 0 1 0 0 0 0 1 0 0 0 0 1 0 0 0 0.05 0"/>
<feBlend mode="normal" in2="BackgroundImageFix" result="effect1_dropShadow_773_17588"/>
<feBlend mode="normal" in="SourceGraphic" in2="effect1_dropShadow_773_17588" result="shape"/>
</filter>
</defs>
</svg>
