<svg width="526" height="340" viewBox="0 0 526 340" fill="none" xmlns="http://www.w3.org/2000/svg">
<rect x="182.099" y="0.625" width="343.427" height="78" rx="12" fill="#1C1C1C"/>
<circle cx="221.099" cy="39.625" r="24" fill="#212B36"/>
<path d="M215.189 39.5C215.189 40.06 215.244 40.575 215.354 41.045C215.464 41.515 215.619 41.92 215.819 42.26C216.029 42.6 216.279 42.865 216.569 43.055C216.859 43.235 217.179 43.325 217.529 43.325C217.899 43.325 218.224 43.235 218.504 43.055C218.794 42.865 219.039 42.6 219.239 42.26C219.449 41.92 219.609 41.515 219.719 41.045C219.829 40.575 219.884 40.06 219.884 39.5C219.884 38.94 219.829 38.425 219.719 37.955C219.609 37.485 219.449 37.08 219.239 36.74C219.039 36.4 218.794 36.14 218.504 35.96C218.224 35.77 217.899 35.675 217.529 35.675C217.179 35.675 216.859 35.77 216.569 35.96C216.279 36.14 216.029 36.4 215.819 36.74C215.619 37.08 215.464 37.485 215.354 37.955C215.244 38.425 215.189 38.94 215.189 39.5ZM213.449 39.5C213.449 38.41 213.619 37.46 213.959 36.65C214.309 35.84 214.789 35.21 215.399 34.76C216.019 34.31 216.729 34.085 217.529 34.085C218.349 34.085 219.064 34.31 219.674 34.76C220.294 35.21 220.774 35.84 221.114 36.65C221.454 37.46 221.624 38.41 221.624 39.5C221.624 40.59 221.454 41.54 221.114 42.35C220.774 43.16 220.294 43.79 219.674 44.24C219.064 44.69 218.349 44.915 217.529 44.915C216.729 44.915 216.019 44.69 215.399 44.24C214.789 43.79 214.309 43.16 213.959 42.35C213.619 41.54 213.449 40.59 213.449 39.5ZM223.349 36.71V35.03L227.534 34.085V44.75H225.779V36.035L223.349 36.71Z" fill="#01B969"/>
<rect x="256.349" y="20.875" width="66.0922" height="15" rx="7.5" fill="#01B969"/>
<rect x="256.349" y="47.125" width="121.463" height="11.25" rx="5.625" fill="#212B36"/>
<rect x="389.062" y="28.375" width="121.463" height="22.5" rx="11.25" fill="#212B36"/>
<rect x="97.4634" y="131.125" width="343.427" height="78" rx="12" fill="#1C1C1C"/>
<circle cx="136.463" cy="170.125" r="24" fill="#212B36"/>
<path d="M130.553 170C130.553 170.56 130.608 171.075 130.718 171.545C130.828 172.015 130.983 172.42 131.183 172.76C131.393 173.1 131.643 173.365 131.933 173.555C132.223 173.735 132.543 173.825 132.893 173.825C133.263 173.825 133.588 173.735 133.868 173.555C134.158 173.365 134.403 173.1 134.603 172.76C134.813 172.42 134.973 172.015 135.083 171.545C135.193 171.075 135.248 170.56 135.248 170C135.248 169.44 135.193 168.925 135.083 168.455C134.973 167.985 134.813 167.58 134.603 167.24C134.403 166.9 134.158 166.64 133.868 166.46C133.588 166.27 133.263 166.175 132.893 166.175C132.543 166.175 132.223 166.27 131.933 166.46C131.643 166.64 131.393 166.9 131.183 167.24C130.983 167.58 130.828 167.985 130.718 168.455C130.608 168.925 130.553 169.44 130.553 170ZM128.813 170C128.813 168.91 128.983 167.96 129.323 167.15C129.673 166.34 130.153 165.71 130.763 165.26C131.383 164.81 132.093 164.585 132.893 164.585C133.713 164.585 134.428 164.81 135.038 165.26C135.658 165.71 136.138 166.34 136.478 167.15C136.818 167.96 136.988 168.91 136.988 170C136.988 171.09 136.818 172.04 136.478 172.85C136.138 173.66 135.658 174.29 135.038 174.74C134.428 175.19 133.713 175.415 132.893 175.415C132.093 175.415 131.383 175.19 130.763 174.74C130.153 174.29 129.673 173.66 129.323 172.85C128.983 172.04 128.813 171.09 128.813 170ZM137.888 175.25L142.748 170.135C142.998 169.865 143.213 169.605 143.393 169.355C143.573 169.105 143.708 168.855 143.798 168.605C143.888 168.355 143.933 168.09 143.933 167.81C143.933 167.61 143.893 167.415 143.813 167.225C143.743 167.025 143.628 166.845 143.468 166.685C143.318 166.525 143.133 166.4 142.913 166.31C142.693 166.21 142.438 166.16 142.148 166.16C141.748 166.16 141.403 166.255 141.113 166.445C140.823 166.625 140.598 166.89 140.438 167.24C140.288 167.59 140.213 167.995 140.213 168.455H138.458C138.458 167.705 138.598 167.04 138.878 166.46C139.168 165.87 139.588 165.41 140.138 165.08C140.698 164.74 141.378 164.57 142.178 164.57C142.788 164.57 143.318 164.67 143.768 164.87C144.218 165.06 144.588 165.31 144.878 165.62C145.178 165.93 145.398 166.27 145.538 166.64C145.688 167.01 145.763 167.37 145.763 167.72C145.763 168.27 145.628 168.8 145.358 169.31C145.098 169.82 144.753 170.275 144.323 170.675L141.338 173.6H145.898V175.25H137.888Z" fill="#01B969"/>
<rect x="171.713" y="151.375" width="96.96" height="15" rx="7.5" fill="#01B969"/>
<rect x="171.713" y="177.625" width="64.228" height="11.25" rx="5.625" fill="#212B36"/>
<rect x="337.365" y="158.875" width="88.5252" height="22.5" rx="11.25" fill="#212B36"/>
<rect y="261.625" width="343.427" height="78" rx="12" fill="#1C1C1C"/>
<circle cx="39" cy="300.625" r="24" fill="#212B36"/>
<path d="M33.09 300.5C33.09 301.06 33.145 301.575 33.255 302.045C33.365 302.515 33.52 302.92 33.72 303.26C33.93 303.6 34.18 303.865 34.47 304.055C34.76 304.235 35.08 304.325 35.43 304.325C35.8 304.325 36.125 304.235 36.405 304.055C36.695 303.865 36.94 303.6 37.14 303.26C37.35 302.92 37.51 302.515 37.62 302.045C37.73 301.575 37.785 301.06 37.785 300.5C37.785 299.94 37.73 299.425 37.62 298.955C37.51 298.485 37.35 298.08 37.14 297.74C36.94 297.4 36.695 297.14 36.405 296.96C36.125 296.77 35.8 296.675 35.43 296.675C35.08 296.675 34.76 296.77 34.47 296.96C34.18 297.14 33.93 297.4 33.72 297.74C33.52 298.08 33.365 298.485 33.255 298.955C33.145 299.425 33.09 299.94 33.09 300.5ZM31.35 300.5C31.35 299.41 31.52 298.46 31.86 297.65C32.21 296.84 32.69 296.21 33.3 295.76C33.92 295.31 34.63 295.085 35.43 295.085C36.25 295.085 36.965 295.31 37.575 295.76C38.195 296.21 38.675 296.84 39.015 297.65C39.355 298.46 39.525 299.41 39.525 300.5C39.525 301.59 39.355 302.54 39.015 303.35C38.675 304.16 38.195 304.79 37.575 305.24C36.965 305.69 36.25 305.915 35.43 305.915C34.63 305.915 33.92 305.69 33.3 305.24C32.69 304.79 32.21 304.16 31.86 303.35C31.52 302.54 31.35 301.59 31.35 300.5ZM44.055 300.605V299.66C44.375 299.66 44.66 299.62 44.91 299.54C45.16 299.45 45.37 299.33 45.54 299.18C45.72 299.03 45.855 298.855 45.945 298.655C46.045 298.445 46.095 298.23 46.095 298.01C46.095 297.73 46.04 297.485 45.93 297.275C45.82 297.055 45.66 296.885 45.45 296.765C45.24 296.645 44.98 296.585 44.67 296.585C44.21 296.585 43.825 296.725 43.515 297.005C43.215 297.275 43.065 297.62 43.065 298.04H41.4C41.4 297.46 41.535 296.95 41.805 296.51C42.085 296.07 42.47 295.725 42.96 295.475C43.45 295.215 44.015 295.085 44.655 295.085C45.335 295.085 45.915 295.215 46.395 295.475C46.875 295.735 47.24 296.08 47.49 296.51C47.75 296.93 47.88 297.4 47.88 297.92C47.88 298.45 47.715 298.92 47.385 299.33C47.055 299.74 46.6 300.055 46.02 300.275C45.45 300.495 44.795 300.605 44.055 300.605ZM44.58 305.93C44.02 305.93 43.515 305.85 43.065 305.69C42.615 305.52 42.235 305.29 41.925 305C41.615 304.7 41.375 304.36 41.205 303.98C41.035 303.59 40.95 303.18 40.95 302.75H42.72C42.72 303.09 42.8 303.385 42.96 303.635C43.13 303.875 43.36 304.065 43.65 304.205C43.94 304.335 44.26 304.4 44.61 304.4C44.97 304.4 45.28 304.335 45.54 304.205C45.81 304.075 46.02 303.89 46.17 303.65C46.32 303.4 46.395 303.1 46.395 302.75C46.395 302.47 46.34 302.22 46.23 302C46.12 301.78 45.96 301.595 45.75 301.445C45.55 301.295 45.305 301.18 45.015 301.1C44.725 301.02 44.405 300.98 44.055 300.98V299.975C44.635 299.975 45.175 300.035 45.675 300.155C46.175 300.265 46.61 300.44 46.98 300.68C47.36 300.91 47.655 301.215 47.865 301.595C48.075 301.965 48.18 302.415 48.18 302.945C48.18 303.535 48.03 304.055 47.73 304.505C47.43 304.955 47.01 305.305 46.47 305.555C45.93 305.805 45.3 305.93 44.58 305.93Z" fill="#01B969"/>
<rect x="74.25" y="281.875" width="38.8098" height="15" rx="7.5" fill="#01B969"/>
<rect x="74.25" y="308.125" width="75.1618" height="11.25" rx="5.625" fill="#212B36"/>
<rect x="200.49" y="289.375" width="127.937" height="22.5" rx="11.25" fill="#212B36"/>
<path d="M182.25 43.3323H117.466C110.838 43.3323 105.466 48.7049 105.466 55.3323V133.171" stroke="#212B36" stroke-width="2.25" stroke-dasharray="4.5 4.5"/>
<path d="M97.983 173.875H18.0278C11.4004 173.875 6.02783 179.248 6.02783 185.875V270.26" stroke="#212B36" stroke-width="2.25" stroke-dasharray="4.5 4.5"/>
</svg>
