<svg width="731" height="535" viewBox="0 0 731 535" fill="none" xmlns="http://www.w3.org/2000/svg">
<g filter="url(#filter0_dd_1314_3399)">
<rect x="147.431" y="18.3357" width="555.925" height="453.329" rx="17.2542" fill="#171717"/>
</g>
<rect x="197.035" y="68.84" width="490.962" height="391.221" rx="8.36567" fill="#121212"/>
<rect x="210.306" y="133.416" width="462.005" height="95.6948" rx="4.18283" fill="#181818"/>
<rect x="223.148" y="155.908" width="33.3029" height="6.33161" rx="3.16602" fill="#0F0F0F"/>
<rect x="381.551" y="155.908" width="25.1335" height="11.3853" rx="5.69302" fill="#0F0F0F"/>
<rect x="381.551" y="177.75" width="30.25" height="6.1547" rx="2.09142" fill="#282828"/>
<rect x="381.551" y="189.132" width="32.2273" height="6.1547" rx="2.09142" fill="#282828"/>
<rect x="381.551" y="200.515" width="32.2273" height="6.1547" rx="2.09142" fill="#282828"/>
<rect x="428.522" y="155.908" width="42.6298" height="11.3853" rx="5.69302" fill="#0F0F0F"/>
<rect x="428.522" y="177.75" width="32.2273" height="6.1547" rx="2.09142" fill="#282828"/>
<rect x="428.522" y="189.133" width="32.2273" height="6.1547" rx="2.09142" fill="#282828"/>
<rect x="428.522" y="200.516" width="39.6014" height="6.1547" rx="2.09142" fill="#282828"/>
<rect x="487.899" y="177.75" width="34.9212" height="6.1547" rx="2.09142" fill="#282828"/>
<rect x="487.899" y="189.133" width="64.1039" height="6.1547" rx="2.09142" fill="#282828"/>
<rect x="571.602" y="155.908" width="57.8418" height="18.818" rx="2.09142" fill="#01B969"/>
<rect x="273.769" y="155.908" width="75.2206" height="11.3853" rx="5.69302" fill="#0F0F0F"/>
<rect x="273.769" y="177.75" width="68.3378" height="6.1547" rx="2.09142" fill="#282828"/>
<rect x="273.769" y="189.133" width="86.7362" height="6.1547" rx="2.09142" fill="#282828"/>
<rect x="210.306" y="236.953" width="462.005" height="95.6948" rx="4.18283" fill="#181818"/>
<rect x="223.148" y="259.445" width="33.3029" height="6.33161" rx="3.16602" fill="#0F0F0F"/>
<rect x="381.551" y="259.445" width="25.1335" height="11.3853" rx="5.69302" fill="#0F0F0F"/>
<rect x="381.551" y="281.287" width="30.25" height="6.1547" rx="2.09142" fill="#282828"/>
<rect x="381.551" y="292.67" width="32.2273" height="6.1547" rx="2.09142" fill="#282828"/>
<rect x="381.551" y="304.053" width="32.2273" height="6.1547" rx="2.09142" fill="#282828"/>
<rect x="428.522" y="259.445" width="42.6298" height="11.3853" rx="5.69302" fill="#0F0F0F"/>
<rect x="428.522" y="281.287" width="32.2273" height="6.1547" rx="2.09142" fill="#282828"/>
<rect x="428.522" y="292.67" width="32.2273" height="6.1547" rx="2.09142" fill="#282828"/>
<rect x="428.522" y="304.053" width="39.6014" height="6.1547" rx="2.09142" fill="#282828"/>
<rect x="487.899" y="281.287" width="34.9212" height="6.1547" rx="2.09142" fill="#282828"/>
<rect x="487.899" y="292.67" width="64.1039" height="6.1547" rx="2.09142" fill="#282828"/>
<rect x="571.602" y="259.445" width="57.8418" height="18.818" rx="2.09142" fill="#01B969"/>
<rect x="273.769" y="259.445" width="75.2206" height="11.3853" rx="5.69302" fill="#0F0F0F"/>
<rect x="273.769" y="281.287" width="68.3378" height="6.1547" rx="2.09142" fill="#282828"/>
<rect x="273.769" y="292.67" width="86.7362" height="6.1547" rx="2.09142" fill="#282828"/>
<rect x="147.43" y="183.018" width="3.27341" height="28.6453" rx="1.6367" fill="#01B969"/>
<rect x="162.729" y="188.349" width="17.9842" height="17.983" rx="2.09142" fill="#01B969"/>
<rect x="162.528" y="218.254" width="17.9842" height="17.983" rx="2.09142" fill="#353535"/>
<rect x="162.528" y="247.683" width="17.9842" height="17.983" rx="2.09142" fill="#353535"/>
<rect x="162.528" y="277.113" width="17.9842" height="17.983" rx="2.09142" fill="#353535"/>
<rect x="162.528" y="306.542" width="17.9842" height="17.983" rx="2.09142" fill="#353535"/>
<rect x="156.716" y="39.0901" width="33.3851" height="8.34569" rx="4.17313" fill="#01B969"/>
<rect x="156.716" y="50.0502" width="33.3851" height="3.92582" rx="1.96304" fill="#282828"/>
<rect x="520.686" y="38.5157" width="16.0364" height="16.0354" rx="8.01822" fill="#282828"/>
<rect x="556.322" y="38.5157" width="16.0364" height="16.0354" rx="8.01822" fill="#282828"/>
<rect x="594.631" y="35.8431" width="21.3819" height="21.3804" rx="10.6909" fill="#282828"/>
<rect x="620.914" y="42.97" width="56.0529" height="7.12684" rx="3.56366" fill="#0F0F0F"/>
<rect x="203.179" y="37.6248" width="243.664" height="17.8171" rx="8.90913" fill="#0F0F0F"/>
<rect x="210.306" y="85.7308" width="50.782" height="12.9174" rx="6.45912" fill="#0F0F0F"/>
<rect x="659.503" y="85.7308" width="12.9197" height="12.9174" rx="2.09142" fill="#01B969"/>
<rect x="223.147" y="118.365" width="37.9403" height="7.20882" rx="2.09142" fill="#282828"/>
<rect x="275.51" y="118.365" width="37.9403" height="7.20882" rx="2.09142" fill="#282828"/>
<rect x="381.551" y="118.365" width="37.9403" height="7.20882" rx="2.09142" fill="#282828"/>
<rect x="573.75" y="118.365" width="37.9403" height="7.20882" rx="2.09142" fill="#282828"/>
<g filter="url(#filter1_ddd_1314_3399)">
<rect x="93.5117" y="330.249" width="588.534" height="116.178" rx="12" fill="#232323"/>
</g>
<rect x="129.511" y="358.013" width="27.5112" height="7.72197" rx="2.09142" fill="#353535"/>
<rect x="332.075" y="358.013" width="23.8008" height="7.72197" rx="3.86124" fill="#0F0F0F"/>
<rect x="332.075" y="370.773" width="29.5927" height="12.3367" rx="2.09142" fill="#353535"/>
<rect x="332.075" y="393.566" width="36.8325" height="7.72197" rx="2.09142" fill="#353535"/>
<rect x="332.075" y="406.326" width="36.8325" height="12.3367" rx="2.09142" fill="#353535"/>
<rect x="391.39" y="358.013" width="47.7692" height="7.72197" rx="3.86124" fill="#0F0F0F"/>
<rect x="391.39" y="370.963" width="36.8325" height="12.3367" rx="2.09142" fill="#353535"/>
<rect x="391.39" y="393.756" width="47.7692" height="7.72197" rx="2.09142" fill="#353535"/>
<rect x="391.39" y="406.707" width="47.7692" height="7.72197" rx="2.09142" fill="#353535"/>
<rect x="461.642" y="358.013" width="46.4856" height="7.72197" rx="3.86124" fill="#0F0F0F"/>
<rect x="461.642" y="370.963" width="42.6243" height="12.3367" rx="2.09142" fill="#353535"/>
<rect x="461.642" y="393.756" width="84.1326" height="12.3367" rx="2.09142" fill="#353535"/>
<rect x="193.554" y="358.013" width="71.5835" height="14.4787" rx="7.23981" fill="#0F0F0F"/>
<rect x="193.554" y="382.948" width="76.4101" height="7.72197" rx="2.09142" fill="#353535"/>
<rect x="193.554" y="395.898" width="104.404" height="7.72197" rx="2.09142" fill="#353535"/>
<rect x="571.601" y="358.013" width="74.4443" height="26.4094" rx="2.09142" fill="#01B969"/>
<defs>
<filter id="filter0_dd_1314_3399" x="114.439" y="0.814606" width="602.556" height="499.959" filterUnits="userSpaceOnUse" color-interpolation-filters="sRGB">
<feFlood flood-opacity="0" result="BackgroundImageFix"/>
<feColorMatrix in="SourceAlpha" type="matrix" values="0 0 0 0 0 0 0 0 0 0 0 0 0 0 0 0 0 0 127 0" result="hardAlpha"/>
<feOffset dx="-2.04682" dy="1.22573"/>
<feGaussianBlur stdDeviation="2.98221"/>
<feColorMatrix type="matrix" values="0 0 0 0 0.0440159 0 0 0 0 0.881375 0 0 0 0 0.026927 0 0 0 0.0235556 0"/>
<feBlend mode="normal" in2="BackgroundImageFix" result="effect1_dropShadow_1314_3399"/>
<feColorMatrix in="SourceAlpha" type="matrix" values="0 0 0 0 0 0 0 0 0 0 0 0 0 0 0 0 0 0 127 0" result="hardAlpha"/>
<feOffset dx="-9.67587" dy="5.79434"/>
<feGaussianBlur stdDeviation="11.6577"/>
<feColorMatrix type="matrix" values="0 0 0 0 0.026927 0 0 0 0 0.881375 0 0 0 0 0.112372 0 0 0 0.0364444 0"/>
<feBlend mode="normal" in2="effect1_dropShadow_1314_3399" result="effect2_dropShadow_1314_3399"/>
<feBlend mode="normal" in="SourceGraphic" in2="effect2_dropShadow_1314_3399" result="shape"/>
</filter>
<filter id="filter1_ddd_1314_3399" x="-4.80793" y="272.092" width="734.933" height="262.577" filterUnits="userSpaceOnUse" color-interpolation-filters="sRGB">
<feFlood flood-opacity="0" result="BackgroundImageFix"/>
<feColorMatrix in="SourceAlpha" type="matrix" values="0 0 0 0 0 0 0 0 0 0 0 0 0 0 0 0 0 0 127 0" result="hardAlpha"/>
<feOffset dx="-2.04682" dy="1.22573"/>
<feGaussianBlur stdDeviation="2.98221"/>
<feColorMatrix type="matrix" values="0 0 0 0 0 0 0 0 0 0 0 0 0 0 0 0 0 0 0.0235556 0"/>
<feBlend mode="normal" in2="BackgroundImageFix" result="effect1_dropShadow_1314_3399"/>
<feColorMatrix in="SourceAlpha" type="matrix" values="0 0 0 0 0 0 0 0 0 0 0 0 0 0 0 0 0 0 127 0" result="hardAlpha"/>
<feOffset dx="-9.67587" dy="5.79434"/>
<feGaussianBlur stdDeviation="11.6577"/>
<feColorMatrix type="matrix" values="0 0 0 0 0 0 0 0 0 0 0 0 0 0 0 0 0 0 0.0364444 0"/>
<feBlend mode="normal" in2="effect1_dropShadow_1314_3399" result="effect2_dropShadow_1314_3399"/>
<feColorMatrix in="SourceAlpha" type="matrix" values="0 0 0 0 0 0 0 0 0 0 0 0 0 0 0 0 0 0 127 0" result="hardAlpha"/>
<feOffset dx="-25.1201" dy="15.043"/>
<feGaussianBlur stdDeviation="36.5998"/>
<feColorMatrix type="matrix" values="0 0 0 0 0 0 0 0 0 0 0 0 0 0 0 0 0 0 0.06 0"/>
<feBlend mode="normal" in2="effect2_dropShadow_1314_3399" result="effect3_dropShadow_1314_3399"/>
<feBlend mode="normal" in="SourceGraphic" in2="effect3_dropShadow_1314_3399" result="shape"/>
</filter>
</defs>
</svg>
