<svg width="115" height="34" viewBox="0 0 115 34" fill="none" xmlns="http://www.w3.org/2000/svg">
<g clip-path="url(#clip0_1418_22341)">
<path d="M17.0708 0.467658C17.1979 0.484965 17.3201 0.522697 17.4291 0.592024C17.5242 0.652427 17.6068 0.729582 17.6706 0.822551C17.9593 1.2429 17.8168 1.84658 17.3558 2.07705C17.1973 2.15635 17.017 2.17942 16.8427 2.15595C16.7278 2.14046 16.6154 2.09861 16.517 2.03759C15.8935 1.65101 16.049 0.6509 16.7694 0.485788C16.8663 0.463598 16.9718 0.454193 17.0708 0.467658ZM25.8424 2.67483C25.9663 2.69259 26.0869 2.73242 26.1926 2.80055C26.2871 2.86151 26.3665 2.93755 26.4311 3.0297C26.8585 3.64014 26.3237 4.46702 25.5981 4.36191C25.4791 4.34468 25.3645 4.30139 25.2641 4.23505C24.657 3.83363 24.8123 2.84456 25.541 2.68935C25.637 2.66891 25.7447 2.66085 25.8424 2.67483ZM8.31548 2.67481C8.43936 2.69168 8.55998 2.72758 8.6657 2.79632C8.77043 2.86448 8.86092 2.94852 8.92876 3.05414C9.19427 3.46709 9.0502 4.03989 8.61683 4.27328C8.455 4.36045 8.26784 4.38609 8.08744 4.36307C7.97504 4.34873 7.86705 4.30889 7.7698 4.25125C7.67704 4.19628 7.59079 4.11827 7.52677 4.03147C7.09511 3.44655 7.58118 2.57482 8.31548 2.67481ZM23.7167 13.0067C23.6684 12.9831 23.6324 12.9305 23.5945 12.8927C23.5252 12.8233 23.4521 12.7583 23.3828 12.689C23.2026 12.5091 23.0032 12.3447 22.8045 12.1857C22.1842 11.6895 21.5064 11.2791 20.7847 10.9487C18.2164 9.77267 15.0933 9.87301 12.6076 11.2174C12.0362 11.5264 11.4946 11.8858 10.995 12.3017C10.8306 12.4385 10.6676 12.5805 10.5145 12.7299C10.4219 12.8203 10.3352 12.9322 10.2294 13.0067C10.1669 12.7842 10.1331 12.5492 10.0877 12.3225C10.0002 11.8853 9.91327 11.4475 9.8205 11.0113C9.51744 9.58592 9.23345 8.15583 8.94586 6.72729C8.87696 6.38501 8.80423 6.04346 8.73574 5.70109C8.70373 5.54095 8.64485 5.36795 8.64167 5.20428C8.63776 4.99899 8.80195 4.80423 9.00776 4.78218C9.21406 4.76007 9.3535 4.87645 9.51272 4.98907C9.71812 5.13429 9.92638 5.27544 10.1317 5.42072C10.775 5.87582 11.4246 6.32203 12.0701 6.77388C12.2762 6.91819 12.4797 7.0884 12.7054 7.20123C13.0443 7.37071 13.4514 7.39379 13.8049 7.25503C14.3303 7.04876 14.5461 6.59316 14.81 6.13275C15.246 5.37233 15.6691 4.60457 16.105 3.84415C16.2291 3.62778 16.3537 3.4112 16.4737 3.19259C16.61 2.94454 16.7681 2.68949 17.0952 2.77852C17.2727 2.82682 17.3476 2.98003 17.4314 3.12744C17.5856 3.39857 17.7403 3.66954 17.8922 3.94188C18.3103 4.69087 18.7339 5.43746 19.1605 6.18161C19.4093 6.61566 19.6225 7.05122 20.1168 7.24688C20.4539 7.3803 20.8436 7.38177 21.1756 7.22973C21.4392 7.10907 21.6721 6.91499 21.9086 6.74945C22.5406 6.30705 23.1721 5.86359 23.8063 5.42438C23.9913 5.29624 24.1764 5.16793 24.3601 5.03793C24.475 4.95663 24.5942 4.85168 24.7266 4.80086C24.8935 4.73681 25.1091 4.80062 25.214 4.94366C25.3616 5.14512 25.2733 5.40642 25.2224 5.62779C25.1146 6.09702 25.0279 6.5728 24.9335 7.04493C24.6562 8.43063 24.3662 9.81372 24.0848 11.1986C24.0081 11.5759 23.9335 11.954 23.8534 12.3307C23.806 12.5536 23.7458 12.7807 23.7167 13.0067Z" fill="#FDB52B"/>
<path d="M18.2762 30.9734C19.5412 31.0733 20.7942 31.1562 22.0227 31.5098C22.3061 31.5914 22.6125 31.706 22.8453 31.8911C22.9687 31.9891 23.0708 32.1282 23.0306 32.2928C22.9865 32.4738 22.7997 32.5852 22.6498 32.6709C22.2487 32.9004 21.7631 33.0143 21.3141 33.1073C19.4998 33.4829 17.605 33.5461 15.7596 33.4653C14.5035 33.4103 13.2102 33.3028 11.9968 32.9478C11.7033 32.862 11.3915 32.7581 11.1417 32.5767C11.0331 32.4978 10.9123 32.3881 10.9058 32.244C10.8981 32.0756 11.0061 31.9598 11.1335 31.8643C11.3714 31.6859 11.6807 31.5772 11.9643 31.4958C13.1631 31.1521 14.4294 31.0267 15.67 30.9734C13.916 29.2194 12.3233 27.2315 11.0881 25.0768C10.2125 23.5496 9.48044 21.8272 9.35876 20.0517C9.28139 18.9227 9.43817 17.777 9.85321 16.7206C10.2433 15.7276 10.8381 14.771 11.6222 14.0404C12.4877 13.2337 13.4688 12.5901 14.6031 12.2276C17.3169 11.3606 20.3516 12.0687 22.3729 14.09C22.7427 14.4598 23.0854 14.8693 23.3661 15.3116C23.8643 16.0967 24.228 16.9438 24.4287 17.8527C24.6328 18.7764 24.66 19.7453 24.5101 20.6788C24.2549 22.2677 23.6104 23.7619 22.8127 25.1501C21.9425 26.6644 20.8838 28.0681 19.7399 29.3853C19.2671 29.9297 18.7642 30.4436 18.2762 30.9734Z" fill="#01B969"/>
<path d="M17.0383 15.6742C17.2275 15.7145 17.2797 15.9154 17.3503 16.069C17.5233 16.446 17.6991 16.8221 17.8678 17.2011C18.5671 18.7711 19.3289 20.3148 20.011 21.8923C20.1933 22.3138 20.3925 22.7291 20.5836 23.1466C20.6592 23.3117 20.7875 23.499 20.6699 23.676C20.5493 23.8573 20.3618 23.8167 20.1983 23.735C19.8459 23.5588 19.5001 23.3697 19.1477 23.1934C18.6252 22.9322 18.0928 22.6725 17.5839 22.3857C17.4566 22.3139 17.3238 22.2489 17.193 22.1835C17.0944 22.1342 17.0046 22.0854 16.8917 22.1162C16.808 22.1391 16.7323 22.1937 16.6555 22.2324C16.4863 22.3175 16.3197 22.4078 16.1505 22.493C15.5557 22.7925 14.9706 23.1114 14.375 23.4092C14.1785 23.5075 13.9838 23.6098 13.7886 23.7107C13.6749 23.7693 13.5709 23.8373 13.4384 23.7978C13.2696 23.7474 13.1822 23.5612 13.2435 23.3991C13.4248 22.9189 13.6764 22.4589 13.8852 21.9901C14.6136 20.3546 15.4075 18.7467 16.1179 17.1034C16.2847 16.7175 16.4667 16.3372 16.6417 15.955C16.7189 15.7863 16.8254 15.6287 17.0383 15.6742Z" fill="white"/>
</g>
<path d="M42.6882 21.4385H39.8885C39.8374 21.0763 39.733 20.7545 39.5753 20.4733C39.4176 20.1878 39.2152 19.9449 38.968 19.7446C38.7209 19.5443 38.4354 19.3909 38.1115 19.2844C37.7919 19.1778 37.4446 19.1246 37.0696 19.1246C36.392 19.1246 35.8018 19.2929 35.299 19.6295C34.7962 19.9619 34.4063 20.4477 34.1293 21.0869C33.8523 21.7219 33.7138 22.4932 33.7138 23.4008C33.7138 24.3341 33.8523 25.1182 34.1293 25.7531C34.4105 26.3881 34.8026 26.8675 35.3054 27.1913C35.8082 27.5152 36.3899 27.6771 37.0504 27.6771C37.4212 27.6771 37.7642 27.6281 38.0795 27.5301C38.3991 27.4321 38.6825 27.2893 38.9297 27.1018C39.1768 26.9101 39.3814 26.6778 39.5433 26.4051C39.7095 26.1324 39.8246 25.8213 39.8885 25.4719L42.6882 25.4846C42.6158 26.0855 42.4347 26.665 42.1449 27.2233C41.8594 27.7773 41.4737 28.2737 40.9879 28.7126C40.5064 29.1473 39.9311 29.4925 39.2621 29.7481C38.5973 29.9996 37.8452 30.1253 37.0057 30.1253C35.8381 30.1253 34.794 29.8611 33.8736 29.3327C32.9574 28.8042 32.233 28.0393 31.7003 27.0379C31.1719 26.0365 30.9077 24.8241 30.9077 23.4008C30.9077 21.9733 31.1761 20.7588 31.7131 19.7574C32.25 18.7559 32.9787 17.9932 33.8991 17.469C34.8196 16.9406 35.8551 16.6764 37.0057 16.6764C37.7642 16.6764 38.4673 16.7829 39.1151 16.996C39.767 17.2091 40.3445 17.5202 40.8473 17.9292C41.3501 18.3341 41.7592 18.8305 42.0746 19.4186C42.3942 20.0067 42.5987 20.68 42.6882 21.4385ZM44.1744 19.1373V16.8554H54.9258V19.1373H50.918V29.9463H48.1822V19.1373H44.1744ZM56.6964 29.9463V16.8554H61.8612C62.8498 16.8554 63.6935 17.0322 64.3924 17.3859C65.0955 17.7354 65.6303 18.2318 65.9968 18.8753C66.3675 19.5145 66.5529 20.2666 66.5529 21.1317C66.5529 22.001 66.3654 22.7488 65.9904 23.3753C65.6154 23.9974 65.0721 24.4747 64.3604 24.8071C63.6531 25.1395 62.7965 25.3057 61.7908 25.3057H58.3327V23.0812H61.3434C61.8718 23.0812 62.3107 23.0088 62.6602 22.8639C63.0096 22.719 63.2695 22.5017 63.44 22.2119C63.6147 21.9221 63.7021 21.5621 63.7021 21.1317C63.7021 20.697 63.6147 20.3305 63.44 20.0322C63.2695 19.7339 63.0075 19.5081 62.6538 19.3547C62.3043 19.197 61.8633 19.1182 61.3306 19.1182H59.4641V29.9463H56.6964ZM63.766 23.9889L67.0195 29.9463H63.9641L60.7809 23.9889H63.766ZM72.6749 29.9463V16.8554H77.9164C78.8794 16.8554 79.6827 16.9981 80.3262 17.2836C80.9696 17.5692 81.4533 17.9655 81.7772 18.4726C82.101 18.9754 82.263 19.555 82.263 20.2112C82.263 20.7226 82.1607 21.1721 81.9561 21.5599C81.7516 21.9434 81.4703 22.2588 81.1124 22.5059C80.7587 22.7488 80.3539 22.9214 79.8979 23.0237V23.1515C80.3965 23.1729 80.8631 23.3135 81.2978 23.5734C81.7367 23.8334 82.0925 24.1977 82.3652 24.6665C82.638 25.1309 82.7743 25.6849 82.7743 26.3284C82.7743 27.023 82.6017 27.643 82.2566 28.1885C81.9157 28.7297 81.4107 29.1579 80.7417 29.4733C80.0726 29.7886 79.248 29.9463 78.2679 29.9463H72.6749ZM75.4426 27.6835H77.699C78.4703 27.6835 79.0328 27.5365 79.3865 27.2425C79.7402 26.9442 79.9171 26.5479 79.9171 26.0535C79.9171 25.6913 79.8297 25.3717 79.655 25.0947C79.4803 24.8177 79.231 24.6004 78.9071 24.4427C78.5875 24.2851 78.2061 24.2062 77.763 24.2062H75.4426V27.6835ZM75.4426 22.3334H77.4945C77.8738 22.3334 78.2104 22.2673 78.5044 22.1352C78.8027 21.9988 79.0371 21.8071 79.2076 21.5599C79.3823 21.3128 79.4696 21.0166 79.4696 20.6714C79.4696 20.1984 79.3013 19.817 78.9647 19.5273C78.6323 19.2375 78.1593 19.0926 77.5456 19.0926H75.4426V22.3334ZM88.9602 30.1381C87.9673 30.1381 87.1087 29.9271 86.3842 29.5052C85.6641 29.0791 85.108 28.4868 84.7159 27.7282C84.3239 26.9655 84.1278 26.0812 84.1278 25.0756C84.1278 24.0613 84.3239 23.175 84.7159 22.4165C85.108 21.6537 85.6641 21.0613 86.3842 20.6395C87.1087 20.2133 87.9673 20.0003 88.9602 20.0003C89.9531 20.0003 90.8097 20.2133 91.5298 20.6395C92.2543 21.0613 92.8125 21.6537 93.2045 22.4165C93.5966 23.175 93.7926 24.0613 93.7926 25.0756C93.7926 26.0812 93.5966 26.9655 93.2045 27.7282C92.8125 28.4868 92.2543 29.0791 91.5298 29.5052C90.8097 29.9271 89.9531 30.1381 88.9602 30.1381ZM88.973 28.0287C89.4247 28.0287 89.8018 27.9008 90.1044 27.6452C90.407 27.3852 90.6349 27.0315 90.7884 26.5841C90.946 26.1366 91.0249 25.6274 91.0249 25.0564C91.0249 24.4854 90.946 23.9761 90.7884 23.5287C90.6349 23.0812 90.407 22.7275 90.1044 22.4676C89.8018 22.2077 89.4247 22.0777 88.973 22.0777C88.517 22.0777 88.1335 22.2077 87.8224 22.4676C87.5156 22.7275 87.2834 23.0812 87.1257 23.5287C86.9723 23.9761 86.8956 24.4854 86.8956 25.0564C86.8956 25.6274 86.9723 26.1366 87.1257 26.5841C87.2834 27.0315 87.5156 27.3852 87.8224 27.6452C88.1335 27.9008 88.517 28.0287 88.973 28.0287ZM103.732 22.9278L101.239 23.0812C101.197 22.8682 101.105 22.6764 100.964 22.5059C100.824 22.3312 100.638 22.1927 100.408 22.0905C100.183 21.9839 99.9119 21.9307 99.5966 21.9307C99.1747 21.9307 98.8189 22.0202 98.5291 22.1991C98.2393 22.3738 98.0945 22.6082 98.0945 22.9023C98.0945 23.1366 98.1882 23.3348 98.3757 23.4967C98.5632 23.6586 98.8849 23.7886 99.3409 23.8866L101.118 24.2446C102.072 24.4406 102.784 24.7559 103.253 25.1906C103.722 25.6253 103.956 26.1963 103.956 26.9037C103.956 27.5471 103.766 28.1118 103.387 28.5976C103.012 29.0834 102.496 29.4626 101.84 29.7354C101.188 30.0038 100.436 30.1381 99.5838 30.1381C98.2841 30.1381 97.2486 29.8675 96.4773 29.3263C95.7102 28.7808 95.2607 28.0393 95.1286 27.1018L97.8068 26.9612C97.8878 27.3575 98.0838 27.6601 98.3949 27.8689C98.706 28.0734 99.1044 28.1757 99.5902 28.1757C100.067 28.1757 100.451 28.0841 100.741 27.9008C101.035 27.7133 101.184 27.4726 101.188 27.1785C101.184 26.9314 101.08 26.729 100.875 26.5713C100.67 26.4094 100.355 26.2858 99.929 26.2006L98.2287 25.8618C97.2699 25.67 96.5561 25.3376 96.0874 24.8646C95.6229 24.3916 95.3906 23.7886 95.3906 23.0557C95.3906 22.425 95.5611 21.8817 95.902 21.4257C96.2472 20.9697 96.7308 20.6182 97.353 20.371C97.9794 20.1238 98.7124 20.0003 99.5518 20.0003C100.792 20.0003 101.768 20.2623 102.479 20.7865C103.195 21.3106 103.613 22.0244 103.732 22.9278ZM113.84 22.9278L111.347 23.0812C111.304 22.8682 111.213 22.6764 111.072 22.5059C110.931 22.3312 110.746 22.1927 110.516 22.0905C110.29 21.9839 110.019 21.9307 109.704 21.9307C109.282 21.9307 108.926 22.0202 108.637 22.1991C108.347 22.3738 108.202 22.6082 108.202 22.9023C108.202 23.1366 108.296 23.3348 108.483 23.4967C108.671 23.6586 108.992 23.7886 109.448 23.8866L111.225 24.2446C112.18 24.4406 112.892 24.7559 113.36 25.1906C113.829 25.6253 114.063 26.1963 114.063 26.9037C114.063 27.5471 113.874 28.1118 113.494 28.5976C113.119 29.0834 112.604 29.4626 111.948 29.7354C111.296 30.0038 110.544 30.1381 109.691 30.1381C108.392 30.1381 107.356 29.8675 106.585 29.3263C105.818 28.7808 105.368 28.0393 105.236 27.1018L107.914 26.9612C107.995 27.3575 108.191 27.6601 108.502 27.8689C108.813 28.0734 109.212 28.1757 109.698 28.1757C110.175 28.1757 110.558 28.0841 110.848 27.9008C111.142 27.7133 111.291 27.4726 111.296 27.1785C111.291 26.9314 111.187 26.729 110.982 26.5713C110.778 26.4094 110.463 26.2858 110.036 26.2006L108.336 25.8618C107.377 25.67 106.664 25.3376 106.195 24.8646C105.73 24.3916 105.498 23.7886 105.498 23.0557C105.498 22.425 105.669 21.8817 106.009 21.4257C106.355 20.9697 106.838 20.6182 107.46 20.371C108.087 20.1238 108.82 20.0003 109.659 20.0003C110.899 20.0003 111.875 20.2623 112.587 20.7865C113.303 21.3106 113.72 22.0244 113.84 22.9278Z" fill="black"/>
<defs>
<clipPath id="clip0_1418_22341">
<rect width="33.9462" height="33.9462" fill="white" transform="matrix(-1 0 0 1 33.9462 0)"/>
</clipPath>
</defs>
</svg>
