<svg width="140" height="140" viewBox="0 0 140 140" fill="none" xmlns="http://www.w3.org/2000/svg">
<path d="M70.4031 1.92887C70.9274 2.00025 71.4312 2.15586 71.881 2.44178C72.273 2.69089 72.6136 3.00909 72.8769 3.39251C74.0673 5.12612 73.4798 7.61579 71.5787 8.5663C70.9247 8.89332 70.181 8.98848 69.4626 8.89168C68.9886 8.82782 68.5248 8.65521 68.119 8.40356C65.5477 6.80924 66.189 2.68459 69.1603 2.00364C69.5596 1.91213 69.995 1.87334 70.4031 1.92887ZM106.579 11.0316C107.09 11.1049 107.587 11.2692 108.023 11.5501C108.413 11.8015 108.74 12.1151 109.006 12.4952C110.77 15.0127 108.564 18.4229 105.571 17.9895C105.08 17.9184 104.608 17.7399 104.194 17.4663C101.69 15.8107 102.33 11.7316 105.336 11.0915C105.732 11.0072 106.176 10.974 106.579 11.0316ZM34.2946 11.0315C34.8055 11.1011 35.303 11.2492 35.739 11.5327C36.1709 11.8138 36.5441 12.1604 36.8239 12.596C37.9189 14.2991 37.3247 16.6614 35.5374 17.6239C34.87 17.9834 34.0981 18.0892 33.3541 17.9942C32.8906 17.9351 32.4452 17.7708 32.0441 17.5331C31.6616 17.3064 31.3058 16.9846 31.0418 16.6267C29.2616 14.2144 31.2662 10.6192 34.2946 11.0315ZM97.8119 53.642C97.6127 53.545 97.4642 53.328 97.3081 53.1718C97.0222 52.8856 96.7209 52.6176 96.4347 52.3321C95.6917 51.5901 94.8695 50.9119 94.0499 50.2562C91.4917 48.2096 88.6961 46.5171 85.7198 45.1544C75.1277 40.3044 62.2476 40.7182 51.9962 46.2628C49.6395 47.5372 47.4059 49.0195 45.3455 50.7345C44.6673 51.2988 43.9952 51.8843 43.3637 52.5003C42.9818 52.8732 42.6244 53.3347 42.1881 53.642C41.9301 52.7244 41.7907 51.7553 41.6037 50.8205C41.2429 49.0171 40.8842 47.2117 40.5016 45.4127C39.2517 39.5342 38.0805 33.6363 36.8944 27.7447C36.6103 26.3331 36.3103 24.9245 36.0278 23.5125C35.8958 22.852 35.653 22.1385 35.6399 21.4635C35.6237 20.6169 36.3009 19.8137 37.1497 19.7227C38.0005 19.6315 38.5756 20.1115 39.2322 20.576C40.0794 21.1749 40.9382 21.757 41.785 22.3562C44.4379 24.2331 47.117 26.0734 49.7793 27.9368C50.6294 28.532 51.4685 29.234 52.3992 29.6993C53.7972 30.3983 55.476 30.4935 56.9338 29.9212C59.1006 29.0705 59.9907 27.1915 61.0794 25.2927C62.8774 22.1566 64.6224 18.9902 66.4201 15.8541C66.9316 14.9618 67.4455 14.0686 67.9406 13.167C68.5026 12.144 69.1546 11.0921 70.5038 11.4593C71.2357 11.6585 71.5448 12.2903 71.8904 12.8983C72.5262 14.0165 73.1641 15.134 73.7909 16.2572C75.515 19.3462 77.262 22.4252 79.0214 25.4942C80.0476 27.2843 80.9266 29.0806 82.9654 29.8876C84.3557 30.4378 85.9626 30.4439 87.3321 29.8169C88.419 29.3192 89.3797 28.5188 90.3551 27.8361C92.9616 26.0116 95.5658 24.1826 98.1814 22.3713C98.9445 21.8428 99.7077 21.3136 100.465 20.7775C100.939 20.4422 101.431 20.0093 101.977 19.7998C102.665 19.5356 103.555 19.7988 103.987 20.3887C104.596 21.2196 104.232 22.2972 104.022 23.2102C103.577 25.1453 103.22 27.1076 102.83 29.0547C101.687 34.7696 100.491 40.4737 99.3301 46.1852C99.0137 47.7414 98.706 49.3006 98.3759 50.8541C98.1804 51.7735 97.9321 52.7099 97.8119 53.642Z" fill="#FDB52B"/>
<path d="M75.3743 127.74C80.5914 128.152 85.7587 128.494 90.8253 129.952C91.9942 130.289 93.2579 130.761 94.2179 131.524C94.7267 131.929 95.1479 132.503 94.9823 133.181C94.8003 133.928 94.0301 134.387 93.4117 134.741C91.7574 135.687 89.7548 136.157 87.9031 136.54C80.4207 138.089 72.6059 138.35 64.9952 138.017C59.8151 137.79 54.4811 137.346 49.477 135.883C48.2664 135.529 46.9803 135.1 45.9501 134.352C45.5024 134.026 45.0042 133.574 44.9774 132.98C44.9458 132.286 45.3908 131.808 45.9165 131.414C46.8976 130.678 48.173 130.23 49.3426 129.894C54.2869 128.477 59.5094 127.96 64.6257 127.74C57.3919 120.506 50.8236 112.308 45.7291 103.421C42.1182 97.1226 39.0989 90.0192 38.5971 82.6967C38.278 78.0406 38.9246 73.3153 40.6363 68.9587C42.2452 64.8635 44.6982 60.9181 47.9319 57.9048C51.5014 54.5782 55.5476 51.9236 60.2255 50.4289C71.4178 46.853 83.9335 49.7732 92.2697 58.1094C93.795 59.6347 95.2081 61.3236 96.3659 63.1478C98.4205 66.3855 99.9203 69.8791 100.748 73.6276C101.59 77.4373 101.702 81.4331 101.084 85.2831C100.031 91.8357 97.3736 97.9983 94.0835 103.724C90.4948 109.969 86.1286 115.758 81.4109 121.19C79.4607 123.435 77.3869 125.555 75.3743 127.74Z" fill="#01B969"/>
<path d="M70.2687 64.6432C71.049 64.8095 71.2646 65.6381 71.5555 66.2716C72.2693 67.8264 72.9941 69.3776 73.6901 70.9405C76.5738 77.4155 79.7157 83.782 82.5288 90.2879C83.2805 92.0262 84.1021 93.7389 84.8905 95.4607C85.2022 96.1418 85.7312 96.9141 85.2462 97.644C84.7487 98.392 83.9755 98.2244 83.3013 97.8875C81.8479 97.1606 80.4217 96.3807 78.9683 95.6538C76.8136 94.5766 74.6179 93.5054 72.5192 92.3228C71.9939 92.0265 71.4464 91.7584 70.9069 91.4887C70.5001 91.2855 70.13 91.084 69.6641 91.2113C69.3191 91.3057 69.0068 91.5307 68.69 91.6903C67.9924 92.0416 67.3051 92.4138 66.6075 92.7651C64.1545 94.0005 61.7414 95.3155 59.285 96.5439C58.4745 96.949 57.6717 97.3712 56.8666 97.787C56.3977 98.0289 55.9688 98.3094 55.4223 98.1465C54.726 97.9385 54.3655 97.1707 54.6185 96.5019C55.3662 94.5218 56.4037 92.6247 57.265 90.691C60.2689 83.9459 63.5431 77.3147 66.4731 70.5374C67.161 68.946 67.9114 67.3777 68.6333 65.8013C68.9517 65.1054 69.3907 64.4558 70.2687 64.6432Z" fill="white"/>
</svg>
