<svg width="21" height="21" viewBox="0 0 21 21" fill="none" xmlns="http://www.w3.org/2000/svg">
<g id="ArrowRise-s">
<path id="Vector 647 (Stroke)" fill-rule="evenodd" clip-rule="evenodd" d="M10.4194 8.2721L15.3595 5.28393L15.4773 11.0562L13.3864 9.90528L11.4524 13.4186C11.3868 13.5379 11.2753 13.6252 11.1438 13.6604C11.0123 13.6957 10.8721 13.6758 10.7556 13.6053L8.23602 12.0812L6.14753 15.8753C6.01437 16.1172 5.71031 16.2054 5.46839 16.0722C5.22648 15.9391 5.13832 15.635 5.27148 15.3931L7.61113 11.1427C7.67678 11.0234 7.78823 10.9361 7.91974 10.9009C8.05125 10.8656 8.19144 10.8855 8.30793 10.956L10.8276 12.4801L12.5103 9.42305L10.4194 8.2721Z" fill="#1C1C1C"/>
</g>
</svg>
