<svg width="25" height="24" viewBox="0 0 25 24" fill="none" xmlns="http://www.w3.org/2000/svg">
<g id="ChartLineUp-r">
<g id="Vector">
<path d="M4.25 18.75V4.5C4.25 4.08579 3.91421 3.75 3.5 3.75C3.08579 3.75 2.75 4.08579 2.75 4.5V19.5C2.75 19.9142 3.08579 20.25 3.5 20.25H21.5C21.9142 20.25 22.25 19.9142 22.25 19.5C22.25 19.0858 21.9142 18.75 21.5 18.75H4.25Z" fill="#01B969"/>
<path d="M2.96995 15.9694C2.8293 16.11 2.75 16.3011 2.75 16.5C2.75 16.512 2.75029 16.524 2.75087 16.536C2.75982 16.7223 2.83783 16.8985 2.96967 17.0303C3.11032 17.171 3.30109 17.25 3.5 17.25C3.69891 17.25 3.88968 17.171 4.03033 17.0303L9.5 11.5607L11.9697 14.0303C12.2626 14.3232 12.7374 14.3232 13.0303 14.0303L20.5303 6.53033C20.671 6.38968 20.75 6.19891 20.75 6C20.75 5.80109 20.671 5.61032 20.5303 5.46967C20.3897 5.32902 20.1989 5.25 20 5.25C19.8011 5.25 19.6103 5.32902 19.4697 5.46967L12.5 12.4393L10.0303 9.96967C9.88968 9.82902 9.69891 9.75 9.5 9.75C9.30109 9.75 9.11032 9.82902 8.96967 9.96967L2.96995 15.9694Z" fill="#01B969"/>
<path d="M20 5.25H16.25C15.8358 5.25 15.5 5.58579 15.5 6C15.5 6.41421 15.8358 6.75 16.25 6.75H19.25V9.75C19.25 10.1642 19.5858 10.5 20 10.5C20.4142 10.5 20.75 10.1642 20.75 9.75V6C20.75 5.58579 20.4142 5.25 20 5.25Z" fill="#01B969"/>
</g>
</g>
</svg>
